<svg version="1.1" id="Layer_1" xmlns="http://www.w3.org/2000/svg" xmlns:xlink="http://www.w3.org/1999/xlink" x="0px" y="0px"
	 width="100%" viewBox="0 0 512 512" enable-background="new 0 0 512 512" xml:space="preserve">
<path fill="#FE6211" opacity="1.000000" stroke="none" 
	d="
M303.000000,513.000000 
	C202.024521,513.000000 101.549034,513.000000 1.036777,513.000000 
	C1.036777,342.399506 1.036777,171.798981 1.036777,1.099231 
	C171.558823,1.099231 342.117737,1.099231 512.838318,1.099231 
	C512.838318,171.666550 512.838318,342.333252 512.838318,513.000000 
	C443.132294,513.000000 373.316132,513.000000 303.000000,513.000000 
M39.584614,480.991730 
	C50.197380,480.133636 56.987568,473.838776 59.048481,462.864929 
	C71.964661,394.089264 84.867668,325.311096 97.787148,256.536072 
	C98.055809,255.105911 98.470200,253.703125 98.851715,252.144150 
	C101.038879,252.144150 102.861580,252.144135 104.684280,252.144135 
	C158.847260,252.143997 213.010239,252.153000 267.173218,252.136734 
	C279.459839,252.133057 286.878143,246.052094 289.131989,234.062607 
	C300.455597,173.825821 311.763092,113.585983 323.029724,53.338505 
	C325.838470,38.318970 321.309692,32.999634 305.977905,32.999535 
	C246.481964,32.999146 186.986008,32.998802 127.490067,32.999790 
	C113.324356,33.000027 106.507179,38.787785 103.890419,52.764858 
	C87.794716,138.738098 71.669182,224.705734 55.544052,310.673462 
	C46.083984,361.107849 36.592709,411.536407 27.146753,461.973419 
	C24.962917,473.634033 28.463003,479.274292 39.584614,480.991730 
M441.456757,293.885925 
	C442.956268,293.885864 444.455780,293.887695 445.955292,293.885437 
	C458.657867,293.866364 466.117279,288.114807 468.449310,275.794952 
	C480.013763,214.701843 491.485474,153.591064 502.882080,92.466408 
	C505.068237,80.741257 499.785797,74.648872 487.851410,74.641495 
	C443.870392,74.614311 399.889404,74.630043 355.908386,74.629631 
	C354.313324,74.629623 352.718292,74.629631 351.118591,74.629631 
	C350.617096,77.132179 350.239014,78.919815 349.902008,80.715164 
	C338.260590,142.735565 326.633575,204.758667 314.974976,266.775848 
	C312.928101,277.664154 305.107666,284.069153 293.896362,284.103607 
	C280.568909,284.144592 267.241180,284.103546 253.913666,284.128998 
	C252.534210,284.131622 251.155151,284.344208 249.666901,284.468445 
	C251.813797,291.488922 255.713165,293.877960 264.544861,293.879669 
	C323.186218,293.890961 381.827576,293.885773 441.456757,293.885925 
z"/>
<path fill="#FFFEFE" opacity="1.000000" stroke="none" 
	d="
M39.167248,480.980164 
	C28.463003,479.274292 24.962917,473.634033 27.146753,461.973419 
	C36.592709,411.536407 46.083984,361.107849 55.544052,310.673462 
	C71.669182,224.705734 87.794716,138.738098 103.890419,52.764858 
	C106.507179,38.787785 113.324356,33.000027 127.490067,32.999790 
	C186.986008,32.998802 246.481964,32.999146 305.977905,32.999535 
	C321.309692,32.999634 325.838470,38.318970 323.029724,53.338505 
	C311.763092,113.585983 300.455597,173.825821 289.131989,234.062607 
	C286.878143,246.052094 279.459839,252.133057 267.173218,252.136734 
	C213.010239,252.153000 158.847260,252.143997 104.684280,252.144135 
	C102.861580,252.144135 101.038879,252.144150 98.851715,252.144150 
	C98.470200,253.703125 98.055809,255.105911 97.787148,256.536072 
	C84.867668,325.311096 71.964661,394.089264 59.048481,462.864929 
	C56.987568,473.838776 50.197380,480.133636 39.167248,480.980164 
z"/>
<path fill="#FFFEFE" opacity="1.000000" stroke="none" 
	d="
M440.962830,293.885925 
	C381.827576,293.885773 323.186218,293.890961 264.544861,293.879669 
	C255.713165,293.877960 251.813797,291.488922 249.666901,284.468445 
	C251.155151,284.344208 252.534210,284.131622 253.913666,284.128998 
	C267.241180,284.103546 280.568909,284.144592 293.896362,284.103607 
	C305.107666,284.069153 312.928101,277.664154 314.974976,266.775848 
	C326.633575,204.758667 338.260590,142.735565 349.902008,80.715164 
	C350.239014,78.919815 350.617096,77.132179 351.118591,74.629631 
	C352.718292,74.629631 354.313324,74.629623 355.908386,74.629631 
	C399.889404,74.630043 443.870392,74.614311 487.851410,74.641495 
	C499.785797,74.648872 505.068237,80.741257 502.882080,92.466408 
	C491.485474,153.591064 480.013763,214.701843 468.449310,275.794952 
	C466.117279,288.114807 458.657867,293.866364 445.955292,293.885437 
	C444.455780,293.887695 442.956268,293.885864 440.962830,293.885925 
z"/>
</svg>