<svg version="1.1" id="Layer_1" xmlns="http://www.w3.org/2000/svg" xmlns:xlink="http://www.w3.org/1999/xlink" x="0px" y="0px"
	 width="100%" viewBox="0 0 301 136" enable-background="new 0 0 301 136" xml:space="preserve">
<path fill="#FEFEFE" opacity="1.000000" stroke="none" 
	d="
M246.000000,0.999999 
	C264.657288,1.000000 283.314606,1.000000 301.978943,0.999997 
	C301.985962,46.301208 301.985962,91.602425 301.985962,136.951813 
	C201.749161,136.951813 101.498291,136.951813 1.123711,136.951813 
	C1.123711,91.772194 1.123711,46.543934 1.123711,1.000000 
	C81.687286,1.000000 162.374985,1.000000 243.514053,1.379060 
	C241.373077,9.911539 238.780731,18.064959 236.055298,26.553474 
	C234.641373,31.229868 233.360535,35.571167 231.939819,40.265385 
	C229.266602,51.335110 226.733276,62.051910 224.199951,72.768715 
	C225.059311,73.000511 225.918671,73.232307 226.778030,73.464104 
	C229.881439,63.973824 232.984848,54.483543 236.311493,44.713860 
	C237.687027,40.021748 238.839325,35.609047 240.191483,30.879017 
	C242.625305,22.451557 244.981598,14.371443 246.986053,6.204972 
	C247.369019,4.644651 246.364426,2.743762 246.000000,0.999999 
M141.054199,122.438797 
	C148.617615,122.053024 156.181046,121.667259 163.744461,121.281494 
	C163.725769,120.905205 163.707092,120.528908 163.688400,120.152611 
	C159.443390,119.873779 155.198380,119.594940 150.094803,119.037392 
	C144.726990,118.739868 139.359177,118.442337 133.133392,117.977699 
	C130.814331,117.964561 128.495270,117.951424 125.440102,117.643990 
	C123.299919,117.480942 121.159744,117.317894 118.494530,117.010986 
	C118.318756,117.056046 118.142975,117.101105 117.091179,116.975174 
	C101.437363,115.616982 85.783554,114.258789 69.598373,112.355171 
	C68.067818,112.256851 66.537270,112.158524 64.653900,111.817963 
	C64.653900,111.817963 64.230453,111.879982 63.620056,111.318863 
	C57.793003,109.887115 51.855625,108.788864 46.176437,106.910133 
	C42.177322,105.587189 39.620373,106.602768 36.941769,110.052834 
	C40.638889,114.790695 44.262119,119.433868 48.013947,124.883949 
	C46.218582,125.859787 44.423218,126.835625 41.804840,127.785912 
	C39.815884,128.081573 37.826927,128.377243 35.837971,128.672928 
	C40.212727,132.628220 44.652538,130.018204 49.866009,130.031876 
	C58.384224,129.061920 66.902435,128.091949 76.287331,127.216087 
	C82.852180,126.744408 89.417038,126.272728 96.828331,125.910683 
	C103.882927,125.231804 110.937523,124.552933 118.850060,124.020454 
	C121.599442,123.691811 124.348816,123.363174 127.872063,123.191368 
	C128.916397,123.097183 129.960739,123.002991 131.919830,123.067162 
	C134.703690,122.783730 137.487549,122.500298 141.054199,122.438797 
M143.801010,100.008400 
	C146.190918,99.618782 148.580826,99.229164 151.804672,98.988159 
	C157.202744,98.962418 162.600815,98.936676 168.921585,99.068672 
	C174.329941,98.734383 179.738312,98.400093 186.044159,98.190643 
	C210.446564,96.865196 234.735367,94.398766 258.547760,88.812828 
	C266.656433,86.910706 274.649017,83.775070 282.095093,80.015633 
	C288.290649,76.887581 287.938019,71.561874 281.616028,69.177475 
	C274.302155,66.418983 266.697876,63.835388 257.422546,65.429901 
	C260.473267,66.326897 262.591675,66.639641 264.404724,67.556358 
	C267.049103,68.893448 269.473938,70.664749 271.992371,72.250946 
	C269.517365,73.933578 267.254669,76.488953 264.531494,77.151558 
	C250.920868,80.463264 237.287552,83.888718 223.475021,86.110069 
	C207.092499,88.744759 190.519028,90.192169 173.151581,92.031403 
	C167.585754,92.657974 162.019928,93.284538 155.666794,93.709892 
	C151.777252,94.191063 147.887726,94.672234 143.241562,95.006500 
	C121.347954,95.832436 99.454353,96.658371 77.560745,97.484299 
	C77.579254,98.273582 77.597771,99.062859 77.616287,99.852142 
	C89.414574,99.852142 101.212852,99.852142 113.936417,100.001312 
	C123.611626,99.949028 133.286835,99.896744 143.801010,100.008400 
M110.090080,61.870152 
	C104.401947,62.298805 98.713814,62.727463 92.161827,63.027843 
	C84.421684,64.323059 76.710503,66.446632 68.934578,66.718491 
	C57.401413,67.121689 46.572739,69.785057 35.215076,73.903816 
	C26.197212,78.065742 25.638498,82.204994 32.048222,86.983391 
	C41.874866,83.063629 50.922485,79.454620 60.749447,75.889542 
	C64.589424,74.934937 68.393364,73.786690 72.276505,73.063995 
	C81.838821,71.284348 91.437523,69.700264 101.908508,68.140160 
	C118.426521,66.603889 134.936111,64.968109 151.465820,63.570160 
	C160.778351,62.782578 170.124039,62.387066 179.454788,61.814930 
	C179.450409,61.308979 179.446030,60.803028 179.441650,60.297077 
	C160.644547,59.801311 141.845886,59.554695 122.129501,61.041965 
	C118.417130,61.358704 114.704750,61.675442 110.090080,61.870152 
M206.868286,130.013290 
	C211.579239,130.293655 216.290207,130.574020 221.662643,131.006302 
	C222.110123,130.962250 222.557617,130.918198 223.877945,131.030930 
	C236.260681,131.586700 248.643417,132.142471 261.871216,132.936752 
	C263.916321,132.922012 265.961426,132.907272 268.876709,133.062912 
	C279.155579,133.595703 289.434448,134.128510 299.713318,134.661301 
	C299.761292,134.162766 299.809235,133.664246 299.857208,133.165710 
	C293.913086,132.162079 287.968994,131.158432 281.516418,129.994156 
	C281.342010,130.028412 281.167572,130.062653 280.308685,129.859985 
	C278.887939,129.640900 277.467163,129.421814 275.217255,129.003632 
	C259.136780,127.711494 243.056320,126.419365 226.057205,124.946625 
	C215.713989,125.011810 205.370789,125.076996 194.218735,124.996651 
	C191.802872,125.057556 189.464142,125.200363 190.335388,129.855606 
	C195.515289,129.855606 200.763245,129.855606 206.868286,130.013290 
M274.360840,11.768676 
	C268.157593,10.339954 261.981079,8.763665 255.724472,7.629163 
	C254.693192,7.442162 252.528915,8.976071 252.222458,10.083794 
	C250.698120,15.593335 249.620132,21.226370 248.479050,26.390270 
	C256.062592,27.497679 263.544006,28.590168 271.497101,29.892208 
	C271.654602,29.822947 271.812073,29.753687 272.661072,29.764984 
	C273.773346,29.497097 274.885590,29.229210 276.717590,29.008614 
	C284.025085,26.148382 287.484100,19.929337 290.575256,14.035882 
	C285.220581,13.385949 280.106262,12.765190 274.360840,11.768676 
M31.157288,130.706619 
	C25.536860,131.116913 19.916431,131.527206 14.296004,131.937500 
	C14.411974,132.748199 14.527943,133.558914 14.643912,134.369629 
	C20.324036,133.318542 26.004160,132.267441 31.157288,130.706619 
z"/>
<path fill="#F60B0E" opacity="1.000000" stroke="none" 
	d="
M245.666672,0.999999 
	C246.364426,2.743762 247.369019,4.644651 246.986053,6.204972 
	C244.981598,14.371443 242.625305,22.451557 240.015167,30.699703 
	C238.729034,30.501202 237.411682,30.419386 237.004684,29.768412 
	C236.396317,28.795305 236.428619,27.421646 236.188385,26.218380 
	C238.780731,18.064959 241.373077,9.911539 243.982712,1.379060 
	C244.444443,1.000000 244.888901,1.000000 245.666672,0.999999 
z"/>
<path fill="#030E39" opacity="1.000000" stroke="none" 
	d="
M174.028320,92.154121 
	C190.519028,90.192169 207.092499,88.744759 223.475021,86.110069 
	C237.287552,83.888718 250.920868,80.463264 264.531494,77.151558 
	C267.254669,76.488953 269.517365,73.933578 271.992371,72.250946 
	C269.473938,70.664749 267.049103,68.893448 264.404724,67.556358 
	C262.591675,66.639641 260.473267,66.326897 257.422546,65.429901 
	C266.697876,63.835388 274.302155,66.418983 281.616028,69.177475 
	C287.938019,71.561874 288.290649,76.887581 282.095093,80.015633 
	C274.649017,83.775070 266.656433,86.910706 258.547760,88.812828 
	C234.735367,94.398766 210.446564,96.865196 185.150742,98.082260 
	C181.835663,97.973885 179.413986,97.973885 176.633774,97.973885 
	C177.032410,96.327400 177.352280,95.006271 177.665985,93.710594 
	C176.327621,93.137939 175.177963,92.646034 174.028320,92.154121 
z"/>
<path fill="#01AC0F" opacity="1.000000" stroke="none" 
	d="
M95.981888,125.801048 
	C89.417038,126.272728 82.852180,126.744408 75.417564,127.114502 
	C72.029762,126.334129 69.511734,125.655357 66.714005,124.691650 
	C63.925999,124.290161 61.417698,124.173615 58.548248,124.069458 
	C57.464863,124.094131 56.742619,124.106422 55.964256,123.761421 
	C54.985291,123.084267 53.963116,122.333397 53.156811,122.519218 
	C49.691250,123.317886 47.960117,121.979813 47.166195,117.859016 
	C51.565273,116.677582 55.776138,115.546692 60.413666,114.301216 
	C60.658836,112.339867 60.658836,112.339867 64.230453,111.879982 
	C64.230453,111.879982 64.653900,111.817963 65.098228,112.210388 
	C67.071617,112.702080 68.600677,112.801338 70.129738,112.900589 
	C85.783554,114.258789 101.437363,115.616982 117.250443,117.317657 
	C114.475357,118.108459 111.488159,119.142303 108.617668,118.883194 
	C102.646286,118.344193 99.334770,121.946709 95.981888,125.801048 
z"/>
<path fill="#FE0306" opacity="1.000000" stroke="none" 
	d="
M275.997864,28.961323 
	C274.885590,29.229210 273.773346,29.497097 272.224182,29.596691 
	C271.464142,29.263821 271.210175,29.348574 271.025421,29.682659 
	C263.544006,28.590168 256.062592,27.497679 248.479050,26.390270 
	C249.620132,21.226370 250.698120,15.593335 252.222458,10.083794 
	C252.528915,8.976071 254.693192,7.442162 255.724472,7.629163 
	C261.981079,8.763665 268.157593,10.339954 274.678284,12.413121 
	C275.329742,18.358818 275.663788,23.660069 275.997864,28.961323 
z"/>
<path fill="#041240" opacity="1.000000" stroke="none" 
	d="
M101.021599,68.037537 
	C91.437523,69.700264 81.838821,71.284348 72.276505,73.063995 
	C68.393364,73.786690 64.589424,74.934937 60.095684,75.613258 
	C53.916740,74.106194 48.283760,70.595001 43.386993,77.193512 
	C42.588074,78.270065 39.109032,77.610229 36.954956,77.244781 
	C36.439182,77.157280 36.268936,75.033142 35.939777,73.845695 
	C46.572739,69.785057 57.401413,67.121689 68.934578,66.718491 
	C76.710503,66.446632 84.421684,64.323059 92.892921,63.349831 
	C96.093330,65.121201 101.550537,61.507698 101.021599,68.037537 
z"/>
<path fill="#040F3A" opacity="1.000000" stroke="none" 
	d="
M268.006531,132.892532 
	C265.961426,132.907272 263.916321,132.922012 261.562408,132.518158 
	C260.365570,131.732391 259.497284,131.110718 258.586243,131.040054 
	C253.307693,130.630524 248.018845,130.089050 242.733917,130.093552 
	C236.157425,130.099136 229.581345,130.591812 223.005096,130.874130 
	C222.557617,130.918198 222.110123,130.962250 221.227570,130.546661 
	C215.865387,130.009888 210.938278,129.932755 206.011185,129.855606 
	C200.763245,129.855606 195.515289,129.855606 190.335388,129.855606 
	C189.464142,125.200363 191.802872,125.057556 194.935608,125.339630 
	C202.388718,125.789009 209.125977,126.012840 215.860825,125.955292 
	C219.567917,125.923615 223.270966,125.418755 226.975845,125.127228 
	C243.056320,126.419365 259.136780,127.711494 275.846313,129.338409 
	C277.981293,129.814407 279.487213,129.955658 280.993164,130.096893 
	C281.167572,130.062653 281.342010,130.028412 281.967224,130.313965 
	C282.830078,131.165848 283.242157,131.697937 283.314941,131.791901 
	C278.161224,132.162430 273.083893,132.527481 268.006531,132.892532 
z"/>
<path fill="#040F37" opacity="1.000000" stroke="none" 
	d="
M101.465057,68.088852 
	C101.550537,61.507698 96.093330,65.121201 93.324844,63.413963 
	C98.713814,62.727463 104.401947,62.298805 110.927017,61.962730 
	C113.151192,62.055313 114.538422,62.055313 115.925659,62.055313 
	C116.006653,62.275829 116.087654,62.496342 116.168648,62.716858 
	C115.444809,63.016987 114.720963,63.317120 113.997116,63.617252 
	C114.226799,64.139008 114.456482,64.660759 114.686165,65.182518 
	C119.601852,64.685013 124.517540,64.187515 129.433228,63.690014 
	C129.425308,63.335739 129.417389,62.981464 129.409470,62.627190 
	C127.284859,62.141720 125.160255,61.656254 123.035645,61.170784 
	C141.845886,59.554695 160.644547,59.801311 179.441650,60.297077 
	C179.446030,60.803028 179.450409,61.308979 179.454788,61.814930 
	C170.124039,62.387066 160.778351,62.782578 151.465820,63.570160 
	C134.936111,64.968109 118.426521,66.603889 101.465057,68.088852 
M108.298958,63.019905 
	C107.539055,63.058357 106.779160,63.096809 106.019257,63.135262 
	C106.026573,63.412739 106.033882,63.690212 106.041191,63.967690 
	C107.322899,63.850170 108.604607,63.732651 109.886314,63.615135 
	C109.729271,63.438435 109.594482,63.230572 109.406898,63.096649 
	C109.293335,63.015575 109.098000,63.049053 108.298958,63.019905 
z"/>
<path fill="#00A612" opacity="1.000000" stroke="none" 
	d="
M63.925255,111.599426 
	C60.658836,112.339867 60.658836,112.339867 60.413666,114.301216 
	C55.776138,115.546692 51.565273,116.677582 47.166195,117.859016 
	C47.960117,121.979813 49.691250,123.317886 53.156811,122.519218 
	C53.963116,122.333397 54.985291,123.084267 55.739140,124.020035 
	C52.837711,126.798561 50.333710,125.820335 47.885349,124.077034 
	C44.262119,119.433868 40.638889,114.790695 36.941769,110.052834 
	C39.620373,106.602768 42.177322,105.587189 46.176437,106.910133 
	C51.855625,108.788864 57.793003,109.887115 63.925255,111.599426 
z"/>
<path fill="#030C3B" opacity="1.000000" stroke="none" 
	d="
M35.577427,73.874756 
	C36.268936,75.033142 36.439182,77.157280 36.954956,77.244781 
	C39.109032,77.610229 42.588074,78.270065 43.386993,77.193512 
	C48.283760,70.595001 53.916740,74.106194 59.706013,75.591293 
	C50.922485,79.454620 41.874866,83.063629 32.048222,86.983391 
	C25.638498,82.204994 26.197212,78.065742 35.577427,73.874756 
z"/>
<path fill="#01B21A" opacity="1.000000" stroke="none" 
	d="
M96.405106,125.855865 
	C99.334770,121.946709 102.646286,118.344193 108.617668,118.883194 
	C111.488159,119.142303 114.475357,118.108459 117.688454,117.403152 
	C118.142975,117.101105 118.318756,117.056046 119.055984,117.340393 
	C121.803696,117.759293 123.989952,117.848785 126.176216,117.938278 
	C128.495270,117.951424 130.814331,117.964561 133.604462,118.397888 
	C136.195282,122.540924 132.018066,121.537346 131.005081,122.908798 
	C129.960739,123.002991 128.916397,123.097183 127.071259,123.077911 
	C123.580154,123.896957 120.305138,119.507835 117.992119,123.874054 
	C110.937523,124.552933 103.882927,125.231804 96.405106,125.855865 
z"/>
<path fill="#FF0A11" opacity="1.000000" stroke="none" 
	d="
M276.357727,28.984966 
	C275.663788,23.660069 275.329742,18.358818 274.993835,12.600999 
	C280.106262,12.765190 285.220581,13.385949 290.575256,14.035882 
	C287.484100,19.929337 284.025085,26.148382 276.357727,28.984966 
z"/>
<path fill="#0F1439" opacity="1.000000" stroke="none" 
	d="
M236.088257,44.993263 
	C232.984848,54.483543 229.881439,63.973824 226.778030,73.464104 
	C225.918671,73.232307 225.059311,73.000511 224.199951,72.768715 
	C226.733276,62.051910 229.266602,51.335110 232.223877,40.449638 
	C233.794632,41.851734 234.941452,43.422497 236.088257,44.993263 
z"/>
<path fill="#06123A" opacity="1.000000" stroke="none" 
	d="
M113.011139,99.852142 
	C101.212852,99.852142 89.414574,99.852142 77.616287,99.852142 
	C77.597771,99.062859 77.579254,98.273582 77.560745,97.484299 
	C99.454353,96.658371 121.347954,95.832436 143.621765,95.291290 
	C144.001953,95.576088 144.001572,95.998779 143.540771,95.998917 
	C134.005066,96.335312 124.927139,96.614113 115.859573,97.090294 
	C114.875290,97.141991 113.950928,98.334557 113.000938,99.211502 
	C113.003098,99.425072 113.011139,99.852142 113.011139,99.852142 
z"/>
<path fill="#021B46" opacity="1.000000" stroke="none" 
	d="
M144.001572,95.998779 
	C144.001572,95.998779 144.001953,95.576088 144.000061,95.364746 
	C147.887726,94.672234 151.777252,94.191063 156.566040,93.832352 
	C160.802231,93.954811 164.139175,93.954811 167.735214,93.954811 
	C167.847672,96.068642 167.923279,97.489784 167.998886,98.910927 
	C162.600815,98.936676 157.202744,98.962418 151.104187,98.663803 
	C148.269653,97.559219 146.135620,96.778999 144.001572,95.998779 
z"/>
<path fill="#028146" opacity="1.000000" stroke="none" 
	d="
M47.949646,124.480492 
	C50.333710,125.820335 52.837711,126.798561 55.795258,124.377319 
	C56.742619,124.106422 57.464863,124.094131 58.846798,124.343430 
	C62.002224,124.728867 64.497963,124.852722 66.993698,124.976578 
	C69.511734,125.655357 72.029762,126.334129 74.984222,127.067459 
	C66.902435,128.091949 58.384224,129.061920 49.192375,129.683960 
	C46.555111,128.827850 44.591484,128.319656 42.627857,127.811462 
	C44.423218,126.835625 46.218582,125.859787 47.949646,124.480492 
z"/>
<path fill="#00133E" opacity="1.000000" stroke="none" 
	d="
M143.540771,95.998917 
	C146.135620,96.778999 148.269653,97.559219 150.687225,98.589493 
	C148.580826,99.229164 146.190918,99.618782 143.064606,99.664536 
	C132.551727,99.213089 122.775253,99.105515 112.998779,98.997940 
	C113.950928,98.334557 114.875290,97.141991 115.859573,97.090294 
	C124.927139,96.614113 134.005066,96.335312 143.540771,95.998917 
z"/>
<path fill="#081C46" opacity="1.000000" stroke="none" 
	d="
M168.460236,98.989799 
	C167.923279,97.489784 167.847672,96.068642 167.735214,93.954811 
	C164.139175,93.954811 160.802231,93.954811 156.959686,93.932961 
	C162.019928,93.284538 167.585754,92.657974 173.589951,92.092758 
	C175.177963,92.646034 176.327621,93.137939 177.665985,93.710594 
	C177.352280,95.006271 177.032410,96.327400 176.633774,97.973885 
	C179.413986,97.973885 181.835663,97.973885 184.701996,98.019844 
	C179.738312,98.400093 174.329941,98.734383 168.460236,98.989799 
z"/>
<path fill="#840A24" opacity="1.000000" stroke="none" 
	d="
M236.311493,44.713856 
	C234.941452,43.422497 233.794632,41.851734 232.363770,40.096718 
	C233.360535,35.571167 234.641373,31.229868 236.055298,26.553474 
	C236.428619,27.421646 236.396317,28.795305 237.004684,29.768412 
	C237.411682,30.419386 238.729034,30.501202 239.815308,31.017029 
	C238.839325,35.609047 237.687027,40.021748 236.311493,44.713856 
z"/>
<path fill="#091635" opacity="1.000000" stroke="none" 
	d="
M268.441620,132.977722 
	C273.083893,132.527481 278.161224,132.162430 283.314941,131.791901 
	C283.242157,131.697937 282.830078,131.165848 282.221436,130.394287 
	C287.968994,131.158432 293.913086,132.162079 299.857208,133.165710 
	C299.809235,133.664246 299.761292,134.162766 299.713318,134.661301 
	C289.434448,134.128510 279.155579,133.595703 268.441620,132.977722 
z"/>
<path fill="#08102F" opacity="1.000000" stroke="none" 
	d="
M223.441528,130.952530 
	C229.581345,130.591812 236.157425,130.099136 242.733917,130.093552 
	C248.018845,130.089050 253.307693,130.630524 258.586243,131.040054 
	C259.497284,131.110718 260.365570,131.732391 261.139893,132.398895 
	C248.643417,132.142471 236.260681,131.586700 223.441528,130.952530 
z"/>
<path fill="#0AB320" opacity="1.000000" stroke="none" 
	d="
M150.953369,119.316101 
	C155.198380,119.594940 159.443390,119.873779 163.688400,120.152611 
	C163.707092,120.528908 163.725769,120.905205 163.744461,121.281494 
	C156.181046,121.667259 148.617615,122.053024 140.888626,122.103058 
	C144.133163,120.950241 147.543259,120.133171 150.953369,119.316101 
z"/>
<path fill="#081A46" opacity="1.000000" stroke="none" 
	d="
M122.582573,61.106377 
	C125.160255,61.656254 127.284859,62.141720 129.409470,62.627190 
	C129.417389,62.981464 129.425308,63.335739 129.433228,63.690014 
	C124.517540,64.187515 119.601852,64.685013 114.686165,65.182518 
	C114.456482,64.660759 114.226799,64.139008 113.997116,63.617252 
	C114.720963,63.317120 115.444809,63.016987 116.168648,62.716858 
	C116.087654,62.496342 116.006653,62.275829 115.925659,62.055313 
	C114.538422,62.055313 113.151192,62.055313 111.378166,62.023746 
	C114.704750,61.675442 118.417130,61.358704 122.582573,61.106377 
z"/>
<path fill="#06B629" opacity="1.000000" stroke="none" 
	d="
M150.524078,119.176743 
	C147.543259,120.133171 144.133163,120.950241 140.497223,121.992096 
	C137.487549,122.500298 134.703690,122.783730 131.462463,122.987984 
	C132.018066,121.537346 136.195282,122.540924 134.033447,118.481445 
	C139.359177,118.442337 144.726990,118.739868 150.524078,119.176743 
z"/>
<path fill="#053437" opacity="1.000000" stroke="none" 
	d="
M31.420784,130.961487 
	C26.004160,132.267441 20.324036,133.318542 14.643912,134.369629 
	C14.527943,133.558914 14.411974,132.748199 14.296004,131.937500 
	C19.916431,131.527206 25.536860,131.116913 31.420784,130.961487 
z"/>
<path fill="#05624A" opacity="1.000000" stroke="none" 
	d="
M42.216347,127.798683 
	C44.591484,128.319656 46.555111,128.827850 48.760147,129.617844 
	C44.652538,130.018204 40.212727,132.628220 35.837971,128.672928 
	C37.826927,128.377243 39.815884,128.081573 42.216347,127.798683 
z"/>
<path fill="#000126" opacity="1.000000" stroke="none" 
	d="
M226.516525,125.036926 
	C223.270966,125.418755 219.567917,125.923615 215.860825,125.955292 
	C209.125977,126.012840 202.388718,125.789009 195.340027,125.412392 
	C205.370789,125.076996 215.713989,125.011810 226.516525,125.036926 
z"/>
<path fill="#000126" opacity="1.000000" stroke="none" 
	d="
M113.000938,99.211502 
	C122.775253,99.105515 132.551727,99.213089 142.645126,99.582565 
	C133.286835,99.896744 123.611626,99.949028 113.473778,99.926727 
	C113.011139,99.852142 113.003098,99.425072 113.000938,99.211502 
z"/>
<path fill="#08102F" opacity="1.000000" stroke="none" 
	d="
M206.439728,129.934448 
	C210.938278,129.932755 215.865387,130.009888 220.896820,130.470703 
	C216.290207,130.574020 211.579239,130.293655 206.439728,129.934448 
z"/>
<path fill="#06B629" opacity="1.000000" stroke="none" 
	d="
M118.421089,123.947250 
	C120.305138,119.507835 123.580154,123.896957 126.684326,122.999496 
	C124.348816,123.363174 121.599442,123.691811 118.421089,123.947250 
z"/>
<path fill="#091635" opacity="1.000000" stroke="none" 
	d="
M280.650940,129.978439 
	C279.487213,129.955658 277.981293,129.814407 276.260864,129.437958 
	C277.467163,129.421814 278.887939,129.640900 280.650940,129.978439 
z"/>
<path fill="#06B629" opacity="1.000000" stroke="none" 
	d="
M125.808159,117.791138 
	C123.989952,117.848785 121.803696,117.759293 119.318497,117.412323 
	C121.159744,117.317894 123.299919,117.480942 125.808159,117.791138 
z"/>
<path fill="#00A612" opacity="1.000000" stroke="none" 
	d="
M69.864059,112.627884 
	C68.600677,112.801338 67.071617,112.702080 65.274635,112.331512 
	C66.537270,112.158524 68.067818,112.256851 69.864059,112.627884 
z"/>
<path fill="#FF0A11" opacity="1.000000" stroke="none" 
	d="
M271.261261,29.787434 
	C271.210175,29.348574 271.464142,29.263821 271.878418,29.556412 
	C271.812073,29.753687 271.654602,29.822947 271.261261,29.787434 
z"/>
<path fill="#00A612" opacity="1.000000" stroke="none" 
	d="
M66.714005,124.691650 
	C64.497963,124.852722 62.002224,124.728867 59.207939,124.331039 
	C61.417698,124.173615 63.925999,124.290161 66.714005,124.691650 
z"/>
<path fill="#081A46" opacity="1.000000" stroke="none" 
	d="
M108.619179,63.025482 
	C109.098000,63.049053 109.293335,63.015575 109.406898,63.096649 
	C109.594482,63.230572 109.729271,63.438435 109.886314,63.615135 
	C108.604607,63.732651 107.322899,63.850170 106.041191,63.967690 
	C106.033882,63.690212 106.026573,63.412739 106.019257,63.135262 
	C106.779160,63.096809 107.539055,63.058357 108.619179,63.025482 
z"/>
</svg>