<svg version="1.1" id="Layer_1" xmlns="http://www.w3.org/2000/svg" xmlns:xlink="http://www.w3.org/1999/xlink" x="0px" y="0px"
	 width="100%" viewBox="0 0 350 350" enable-background="new 0 0 350 350" xml:space="preserve">
<path fill="#000A39" opacity="1.000000" stroke="none" 
	d="
M1.000000,318.000000 
	C1.000000,212.333359 1.000000,106.666718 1.000000,1.000057 
	C117.666618,1.000038 234.333237,1.000038 350.999878,1.000019 
	C350.999939,117.666588 350.999939,234.333176 350.999969,350.999878 
	C235.666779,351.000000 120.333542,351.007874 5.000424,350.896820 
	C3.747956,350.895599 0.684888,352.964050 1.432587,348.612488 
	C4.241121,348.149231 6.617069,348.073456 9.307234,348.254028 
	C12.379919,348.581635 15.210785,349.079193 17.880182,348.625885 
	C22.064274,347.915405 26.139299,346.562683 30.649193,345.403625 
	C32.356148,345.215942 33.674427,345.106659 35.283516,345.238068 
	C38.138241,345.171570 40.702152,344.864410 43.658447,344.505157 
	C45.368530,344.352234 46.686226,344.251404 48.269463,344.392029 
	C51.083328,343.847809 53.631657,343.062103 56.527477,342.214478 
	C57.575787,342.067352 58.276600,341.982117 59.130859,342.095947 
	C59.900944,341.996552 60.517586,341.698120 61.470230,341.284424 
	C62.507244,341.058838 63.208256,340.948517 64.324341,341.047577 
	C67.492630,341.205994 70.245850,341.155029 73.280861,341.356628 
	C77.381905,340.593353 81.201157,339.577545 85.452148,338.489136 
	C87.920296,338.276398 89.956711,338.136200 92.305283,338.249207 
	C98.403587,338.852234 104.259010,339.563568 109.561752,335.208130 
	C110.394142,334.776642 110.831619,334.467651 111.557175,334.177917 
	C112.219604,334.112610 112.593964,334.028107 113.307373,334.210388 
	C115.629921,334.421814 117.613419,334.366394 120.008881,334.507690 
	C123.968781,333.521576 127.516701,332.338745 131.255066,331.032349 
	C131.445496,330.908783 131.856339,330.715546 132.257324,330.912689 
	C134.436386,331.070038 136.214447,331.030243 138.274185,331.244141 
	C142.449265,330.476379 146.342667,329.454895 150.601852,328.338196 
	C151.950409,328.038574 152.933197,327.834198 154.130096,327.923431 
	C155.895386,327.806519 157.446579,327.396027 159.403458,326.990540 
	C162.141953,326.584778 164.474762,326.174042 167.049225,325.703613 
	C167.603195,325.483521 167.814682,325.236694 168.079895,324.731293 
	C168.234436,324.559113 168.037048,324.140564 168.357071,324.141602 
	C169.092331,324.050842 169.507568,323.959015 170.310272,324.059601 
	C172.129593,324.169281 173.561432,324.086548 175.225189,324.258484 
	C177.984604,323.533081 180.512100,322.553009 183.454620,321.463440 
	C185.258041,321.059143 186.646454,320.764313 188.142181,320.779297 
	C189.172745,320.730957 190.095978,320.372864 191.397247,320.000244 
	C193.457245,319.574432 195.139206,319.163177 197.180725,318.740417 
	C198.377991,318.390106 199.215698,318.051300 200.378998,317.681274 
	C201.352783,317.566498 202.000977,317.482971 202.989502,317.565491 
	C204.615128,316.905823 205.900391,316.080109 207.416962,315.103455 
	C207.767471,314.640198 207.886673,314.327850 208.321259,314.010559 
	C209.045944,313.914154 209.455261,313.822784 210.215240,313.936127 
	C211.376434,314.127502 212.186935,314.114197 213.228760,314.320374 
	C215.002213,313.726410 216.544357,312.912933 218.416397,311.959625 
	C219.424500,311.589111 220.102676,311.358398 221.126968,311.312622 
	C223.329880,310.679565 225.186691,309.861542 227.286102,308.887146 
	C228.028366,308.212189 228.528030,307.693634 229.347809,307.165741 
	C230.078156,307.043152 230.488403,306.929932 231.252426,307.007202 
	C232.400894,307.109772 233.195587,307.021881 234.158829,307.160187 
	C235.283066,306.678833 236.238724,305.971283 237.571136,305.123474 
	C246.704758,300.753601 255.674683,296.899902 264.117279,292.115662 
	C267.666992,290.104126 270.101990,286.125519 273.021881,283.020569 
	C273.000000,283.000000 273.043915,283.041016 273.359741,283.024902 
	C274.092133,282.539948 274.508698,282.071136 275.238129,281.510864 
	C277.199738,278.955475 279.380219,276.672241 280.301544,273.961090 
	C280.870941,272.285522 279.523987,269.958679 278.974792,267.641724 
	C278.549805,266.915497 278.187378,266.471832 277.824585,265.675659 
	C274.622437,258.264343 268.758453,254.262405 261.824890,251.595840 
	C253.634186,248.445816 245.568542,244.748016 237.120590,242.546768 
	C226.988251,239.906616 216.509689,238.595306 206.099960,236.450928 
	C205.343140,236.190643 204.667404,236.188004 203.526276,236.130554 
	C196.008865,236.087097 188.956863,236.098450 181.485458,236.107117 
	C179.387482,236.080750 177.708878,236.057114 175.719727,235.785889 
	C173.273285,235.460602 171.137375,235.382889 168.801758,235.015747 
	C166.491653,235.649414 164.381271,236.572479 162.270874,237.495544 
	C163.633835,238.174011 164.996796,238.852463 166.748260,239.610367 
	C173.778152,241.082886 180.419510,242.475952 187.450439,243.917297 
	C194.970901,246.018219 202.113037,248.033447 209.220215,250.165253 
	C210.243118,250.472061 211.097702,251.340088 212.020111,252.238297 
	C212.679352,252.656372 213.348679,252.784531 214.409897,253.020813 
	C215.583054,252.994507 216.364304,252.860046 217.099167,252.839661 
	C217.052765,252.953705 216.910156,253.154449 216.976791,253.492249 
	C217.851318,254.063232 218.659210,254.296387 219.693405,254.672394 
	C220.282791,255.202896 220.645874,255.590576 221.052139,256.339111 
	C222.173065,256.963226 223.250824,257.226471 224.368576,257.515961 
	C224.408585,257.542175 224.482498,257.602905 224.462036,257.950745 
	C225.565369,259.238922 226.689163,260.179230 228.047455,261.399353 
	C230.077087,265.266296 228.123520,267.496826 225.105255,269.376282 
	C224.247818,269.955627 223.747223,270.629822 223.158875,271.447113 
	C223.071121,271.590210 222.829605,271.823425 222.450073,271.826050 
	C220.345261,272.843994 218.619980,273.859344 216.741058,275.000061 
	C216.587433,275.125427 216.277313,275.372650 215.957962,275.303162 
	C215.048599,275.750916 214.458603,276.268127 213.885025,276.889954 
	C213.901459,276.994537 214.071442,277.120758 213.755371,276.946350 
	C212.959457,276.791870 212.479614,276.811829 211.825226,276.622986 
	C211.081268,276.923737 210.511841,277.433258 209.773987,278.055573 
	C209.605576,278.168365 209.279160,278.408752 208.878967,278.345642 
	C202.805313,279.831116 197.071045,281.193420 191.487213,283.016541 
	C189.125671,283.787598 187.080566,285.527863 184.909576,286.943146 
	C184.927521,287.058685 185.110260,287.204590 184.806854,286.994019 
	C184.012146,286.789917 183.520844,286.796387 182.760864,286.573425 
	C179.948639,287.484589 177.405075,288.625244 174.877319,289.881500 
	C174.893112,289.997070 175.079788,290.136963 174.769089,289.946350 
	C173.974838,289.795288 173.491302,289.834778 172.706833,289.654663 
	C164.113632,291.299133 155.814972,293.136047 147.541321,295.079529 
	C146.888763,295.232788 146.410248,296.127045 145.559113,296.780945 
	C144.876602,297.011627 144.485825,297.138306 143.755066,297.050842 
	C142.613235,296.831329 141.811386,296.825958 140.721603,296.579468 
	C136.675171,295.790558 133.248169,296.225403 130.509155,299.650513 
	C129.809052,299.786499 129.407715,299.857391 128.681656,299.699768 
	C121.736702,298.478912 115.717636,300.326965 109.590363,303.397217 
	C108.268433,303.492859 107.306953,303.558105 105.915421,303.421997 
	C100.826347,302.805511 96.335526,302.983246 92.883881,306.916931 
	C92.891052,307.035675 93.092041,307.163086 92.719879,306.971130 
	C91.234047,306.814514 90.120384,306.849884 88.683273,306.650299 
	C86.202728,306.391632 84.002350,306.080170 81.896507,306.397034 
	C75.027519,307.430420 68.158928,308.527008 61.356705,309.923370 
	C56.465893,310.927338 51.681362,312.449036 46.856148,313.869751 
	C46.862881,313.999725 47.080719,314.142242 46.706753,313.925476 
	C44.899994,313.729004 43.467205,313.749268 41.707352,313.534851 
	C35.915913,313.135284 30.398659,312.741455 25.699615,316.945618 
	C25.473345,317.021545 24.996967,316.991364 24.662907,316.739563 
	C16.552565,316.991852 8.776282,317.495941 1.000000,318.000000 
M259.443207,62.826420 
	C258.030853,63.055038 256.618469,63.283657 254.712585,63.665863 
	C254.546951,63.713322 254.381332,63.760784 253.749130,63.137466 
	C253.246445,62.928898 252.743759,62.720333 251.996201,61.891376 
	C249.328949,61.255093 246.661682,60.618809 243.390137,59.909195 
	C242.998688,59.804596 242.607254,59.700001 242.012527,58.980160 
	C240.008423,58.292805 238.004333,57.605446 235.328201,56.844685 
	C233.888260,56.229515 232.448318,55.614346 230.943283,54.272884 
	C226.960236,52.843544 222.977203,51.414204 218.387604,49.915524 
	C217.999588,49.794479 217.611572,49.673435 216.930450,48.944519 
	C214.484283,48.149033 212.038101,47.353546 209.059860,46.558945 
	C208.707306,46.524235 208.354736,46.489525 207.625351,45.815430 
	C201.102005,42.292877 194.288116,40.887939 186.137817,42.927898 
	C184.424286,42.915543 182.710754,42.903191 180.365646,42.389576 
	C174.397186,41.688049 168.578049,42.062077 163.299255,45.247250 
	C162.545853,45.701843 162.334854,47.055359 161.728683,48.826466 
	C161.867661,49.915539 162.006638,51.004608 161.920914,52.019604 
	C161.920914,52.019604 161.745789,51.860508 161.198898,51.870308 
	C161.152924,52.586277 161.106949,53.302246 160.990677,54.816063 
	C158.301758,66.189713 155.612839,77.563370 152.287781,89.292442 
	C150.489334,95.085709 148.559662,100.843086 146.960434,106.690826 
	C146.364685,108.869308 145.627579,112.647629 146.558258,113.260117 
	C148.430527,114.492256 151.402039,114.243477 153.922913,114.265312 
	C161.617081,114.331955 169.312653,114.229034 177.007706,114.209610 
	C179.443130,114.203461 181.878677,114.252350 184.767181,114.403999 
	C184.767181,114.403999 185.234268,114.455437 185.234268,114.455437 
	C185.234268,114.455437 185.703827,114.436935 186.420776,114.864670 
	C194.544098,117.061256 202.601898,119.566704 210.821243,121.310760 
	C214.382294,122.066383 218.276352,121.252602 222.845963,121.132240 
	C223.920395,121.024498 224.994812,120.916763 226.762527,121.079460 
	C227.493256,121.012581 228.223969,120.945694 229.725174,121.259109 
	C231.150482,121.218597 232.575775,121.178085 234.603912,121.663681 
	C241.117355,123.434982 246.609802,119.899361 252.115768,117.685486 
	C255.847763,116.184898 258.770844,112.672554 262.427307,109.587814 
	C263.190002,108.946388 263.952698,108.304962 265.393768,107.793083 
	C265.985504,106.927597 266.577240,106.062111 267.173187,105.155830 
	C267.173187,105.155830 267.213715,105.147003 267.909973,105.121498 
	C281.062805,94.478691 288.218628,79.520889 296.351227,65.301575 
	C297.542419,63.218861 297.150940,60.061947 293.707092,60.541904 
	C290.690460,60.962322 287.862946,62.739460 284.258698,64.136902 
	C283.534058,64.133621 282.809418,64.130341 281.723816,63.446346 
	C280.143890,63.741463 278.563934,64.036583 276.058014,64.439133 
	C271.368713,64.494576 266.679443,64.550011 261.668579,64.016350 
	C261.034424,63.830891 260.400299,63.645428 259.443207,62.826420 
M142.127457,23.010103 
	C141.061646,23.058590 139.995850,23.107079 138.305023,23.074305 
	C137.885803,23.093634 137.466599,23.112963 136.542480,22.936804 
	C136.366028,22.974728 136.189575,23.012650 135.311707,23.079319 
	C131.660080,32.061089 127.584412,40.897686 124.448784,50.056122 
	C118.663193,66.954445 113.418144,84.038086 107.972725,101.052460 
	C106.511261,105.618858 105.107773,110.204468 103.733047,114.797836 
	C100.796707,124.609062 97.724503,134.384415 95.042068,144.265167 
	C93.250488,150.864441 92.034668,157.619995 90.402733,165.027969 
	C90.072372,165.946564 89.742020,166.865158 88.735840,167.736588 
	C86.432503,169.514633 84.992577,171.455276 87.595261,174.815704 
	C87.411545,175.453827 87.227837,176.091965 86.414032,176.756958 
	C85.610374,179.173019 84.806717,181.589066 83.926880,184.809845 
	C84.112556,185.297760 84.298233,185.785660 84.308998,186.840103 
	C84.165611,187.206680 84.022217,187.573273 83.281342,187.957489 
	C83.358780,188.651932 83.436226,189.346375 83.523033,190.735947 
	C83.385063,191.175247 83.247093,191.614563 82.372002,192.026657 
	C79.549095,194.593536 78.278496,197.488113 80.532364,201.929169 
	C80.346184,203.284164 80.160004,204.639145 79.418884,205.938568 
	C79.212601,206.243225 79.006317,206.547897 78.147903,207.127533 
	C77.940384,209.782104 77.732864,212.436691 77.585999,215.934769 
	C77.354874,217.604599 77.123749,219.274429 76.200203,221.046616 
	C75.376816,224.690567 74.553429,228.334503 73.754189,232.683472 
	C73.644508,233.378098 73.534828,234.072723 72.934685,235.043167 
	C72.935959,236.027374 72.937233,237.011597 72.876740,238.623154 
	C72.789314,239.033722 72.701889,239.444290 71.964645,240.089294 
	C68.648216,245.050568 68.557953,250.433334 69.884315,256.627411 
	C69.811935,257.037720 69.739548,257.448029 69.031067,258.154236 
	C68.397102,260.182983 67.114853,262.275208 67.305717,264.223145 
	C67.509506,266.303040 68.843361,268.463379 70.231361,270.133667 
	C70.725342,270.728119 73.586517,270.479034 74.046188,269.764832 
	C75.351631,267.736572 75.975632,265.269714 76.883316,262.244629 
	C77.022995,261.529510 77.162674,260.814423 77.729591,260.324615 
	C77.729591,260.324615 78.157402,260.100372 78.860664,259.982025 
	C79.661797,257.850403 80.462929,255.718750 81.466568,253.039352 
	C81.639320,252.690750 81.812080,252.342133 82.641747,251.956543 
	C83.114700,250.636337 83.587646,249.316132 84.160027,247.255539 
	C84.032364,246.793915 83.904709,246.332291 83.964661,245.965149 
	C83.964661,245.965149 84.136841,246.085480 84.824593,245.980957 
	C85.674538,243.860001 86.524483,241.739059 87.433739,239.093185 
	C87.485260,238.744949 87.536774,238.396713 88.184685,237.677673 
	C89.119896,235.115982 90.055099,232.554276 91.046036,229.193115 
	C90.960083,228.419693 90.874138,227.646286 90.983124,226.979492 
	C90.983124,226.979492 91.167564,227.103378 91.850113,227.076996 
	C92.653297,225.042587 93.456482,223.008163 94.319946,220.243774 
	C94.166885,219.800369 94.013824,219.356964 94.060486,219.017792 
	C94.060486,219.017792 94.250771,219.138367 94.892792,219.023102 
	C95.696114,217.006516 96.499443,214.989929 97.333282,212.261688 
	C97.195450,211.823639 97.057617,211.385605 97.104141,211.042328 
	C97.104141,211.042328 97.278877,211.153854 97.944046,211.009949 
	C98.973709,207.671509 100.003380,204.333069 101.131439,200.400711 
	C101.220551,200.009506 101.309654,199.618286 101.979164,198.932526 
	C102.704994,196.623001 103.430824,194.313477 104.214294,191.373062 
	C104.302155,190.959778 104.390022,190.546494 105.066063,189.827255 
	C107.256714,184.137695 109.576256,178.492096 111.543549,172.726318 
	C112.010651,171.357346 111.297516,169.585678 111.176773,167.405441 
	C111.275497,167.020966 111.374229,166.636505 112.032387,165.936768 
	C112.740135,163.625107 113.447884,161.313446 114.194481,158.397369 
	C114.255844,157.998627 114.317207,157.599884 114.969948,156.880432 
	C115.589066,152.808853 120.491653,149.862122 118.150566,144.401733 
	C118.240036,144.013123 118.329506,143.624496 119.017410,142.915649 
	C121.206886,135.542526 123.416817,128.175293 125.540558,120.783295 
	C125.684639,120.281815 125.180351,119.594055 125.081604,118.396103 
	C125.177032,118.003899 125.272461,117.611702 125.978394,116.953239 
	C127.731567,114.579781 130.088379,112.366196 128.167831,108.287079 
	C128.551361,106.926971 128.934891,105.566872 129.936829,104.051086 
	C130.329483,102.700684 130.722137,101.350288 131.210480,99.412910 
	C131.311737,99.029701 131.412994,98.646500 132.069290,97.911743 
	C133.067947,94.273132 134.066605,90.634521 135.155334,86.406334 
	C135.274414,86.027351 135.393478,85.648376 136.092438,84.962898 
	C136.746094,82.307114 137.399750,79.651329 138.087357,76.294281 
	C138.197235,75.601242 138.307114,74.908195 139.003769,73.886002 
	C139.792572,70.792122 140.581390,67.698235 141.447144,63.951279 
	C141.516281,63.297310 141.585419,62.643345 142.246872,61.552242 
	C143.198853,56.700603 144.150833,51.848965 145.117889,46.304005 
	C145.245895,45.623985 145.373917,44.943970 146.090103,43.943863 
	C146.794846,40.631393 147.499588,37.318928 148.237350,33.147903 
	C148.174637,31.432667 148.111908,29.717430 148.477646,27.639690 
	C147.880051,27.220682 147.282471,26.801672 146.343506,26.198471 
	C146.343506,26.198471 146.021271,25.982563 145.979813,25.255770 
	C144.963394,24.529415 143.946976,23.803061 142.127457,23.010103 
z"/>
<path fill="#FCFDFD" opacity="1.000000" stroke="none" 
	d="
M230.898651,306.816711 
	C230.488403,306.929932 230.078156,307.043152 229.184021,306.860779 
	C222.421600,308.953888 216.143097,311.342651 209.864578,313.731384 
	C209.455261,313.822784 209.045944,313.914154 208.142807,313.708435 
	C205.092224,314.459747 202.535446,315.508209 199.652863,316.602234 
	C198.891647,316.700470 198.456238,316.753204 197.726135,316.593414 
	C192.615051,317.709076 187.798691,319.037231 182.698029,320.392334 
	C182.041641,320.497314 181.669540,320.575348 180.910019,320.470367 
	C176.989334,321.480682 173.456085,322.673950 169.922821,323.867188 
	C169.507568,323.959015 169.092331,324.050842 168.132217,323.838135 
	C163.659943,324.539490 159.732529,325.545380 155.507538,326.566101 
	C154.814774,326.619232 154.419601,326.657532 153.687454,326.504761 
	C146.185760,327.780975 139.021042,329.248260 131.856339,330.715546 
	C131.856339,330.715546 131.445496,330.908783 130.958374,330.826965 
	C129.991608,330.754883 129.511948,330.764648 128.730103,330.541962 
	C123.274712,331.520874 118.121521,332.732239 112.968323,333.943573 
	C112.593964,334.028107 112.219604,334.112610 111.369934,333.877747 
	C105.851662,334.597473 100.808701,335.636627 95.388916,336.710388 
	C94.004356,336.800507 92.996605,336.856018 91.700096,336.685364 
	C89.196777,336.789642 86.982216,337.120087 84.456314,337.444183 
	C83.530037,337.518219 82.915092,337.598572 81.887802,337.482910 
	C75.620056,338.470673 69.764664,339.654449 63.909264,340.838196 
	C63.208256,340.948517 62.507244,341.058838 61.173302,341.038818 
	C60.030178,340.865173 59.519985,340.821899 58.682465,340.548096 
	C52.503315,341.405334 46.651497,342.493103 40.386711,343.602051 
	C38.317425,343.702393 36.661110,343.781555 34.678043,343.630096 
	C31.070614,343.528687 27.779602,343.535461 24.511322,343.811462 
	C16.668533,344.473724 8.836420,345.262360 1.000000,346.000000 
	C1.000000,337.979095 1.000000,329.958191 1.435438,321.460571 
	C8.989607,320.248871 16.113245,319.555115 23.218868,318.709961 
	C23.870487,318.632446 24.407003,317.587219 24.996967,316.991364 
	C24.996967,316.991364 25.473345,317.021545 26.075769,317.170959 
	C28.127977,317.293304 29.577763,317.266205 31.321777,317.482300 
	C36.770912,316.531067 41.925816,315.336639 47.080719,314.142242 
	C47.080719,314.142242 46.862881,313.999725 47.234619,314.098572 
	C49.070805,314.130554 50.535255,314.063660 52.282074,314.264465 
	C57.455925,313.539246 62.347404,312.546356 67.632294,311.486664 
	C69.353462,311.315704 70.681221,311.211578 72.301247,311.350525 
	C77.308907,311.284576 82.402061,312.527985 86.512451,308.226318 
	C87.573692,308.098572 88.284325,308.036469 89.222458,308.208344 
	C90.663986,308.015930 91.878014,307.589508 93.092041,307.163086 
	C93.092041,307.163086 92.891052,307.035675 93.230095,307.125732 
	C94.374733,307.193756 95.180328,307.171722 96.276550,307.392853 
	C100.841431,306.634521 105.115692,305.633057 109.847275,304.546021 
	C111.537460,304.319641 112.770332,304.178833 114.257156,304.297424 
	C117.746048,303.521210 120.981003,302.485565 124.542770,301.337769 
	C126.197853,301.432037 127.526115,301.638489 129.245560,301.897522 
	C132.423462,300.879852 135.210175,299.809631 138.314972,298.675171 
	C139.270203,298.492767 139.907349,298.374603 140.871765,298.455444 
	C142.164368,298.191315 143.129700,297.728149 144.095047,297.264954 
	C144.485825,297.138306 144.876602,297.011627 145.870941,297.009277 
	C146.988632,297.150146 147.502731,297.166687 148.290604,297.412628 
	C151.794144,296.612427 155.023926,295.582825 158.625198,294.480896 
	C159.998367,294.282562 161.000015,294.156494 162.262268,294.260864 
	C165.407639,293.430817 168.292435,292.370361 171.476807,291.235626 
	C172.184082,291.106506 172.591766,291.051666 173.166412,291.206665 
	C173.915512,290.990021 174.497650,290.563507 175.079788,290.136963 
	C175.079788,290.136963 174.893112,289.997070 175.194519,290.091858 
	C176.002274,290.180389 176.508652,290.174133 177.264267,290.401855 
	C180.045761,289.492065 182.578018,288.348328 185.110260,287.204590 
	C185.110260,287.204590 184.927521,287.058685 185.256683,287.154114 
	C186.393417,287.201569 187.201004,287.153625 188.235596,287.338867 
	C190.705093,286.495758 192.947586,285.419464 195.488892,284.274414 
	C196.192459,284.148560 196.597214,284.091461 197.241821,284.258606 
	C199.723190,283.441101 201.964676,282.399323 204.473801,281.261200 
	C206.015930,280.891235 207.290421,280.617615 208.903473,280.501831 
	C210.851837,279.480011 212.461639,278.300385 214.071442,277.120758 
	C214.071442,277.120758 213.901459,276.994537 214.214783,277.058563 
	C215.017990,277.066071 215.507874,277.009583 216.178818,277.184540 
	C217.227859,276.596130 218.095840,275.776276 219.211365,274.817566 
	C219.983093,274.462860 220.507263,274.246979 221.407120,274.079437 
	C224.544327,272.007263 228.090820,270.388580 229.854431,267.630005 
	C231.753052,264.660248 232.183975,260.563782 227.320679,258.298462 
	C224.460678,256.309357 221.731339,254.640488 218.641220,252.927734 
	C217.823685,252.974045 217.366928,253.064255 216.910156,253.154449 
	C216.910156,253.154449 217.052765,252.953705 217.036041,252.503525 
	C211.433899,249.762619 205.937103,247.212234 200.234070,245.266205 
	C195.940201,243.801025 191.381958,243.110611 186.589233,241.976776 
	C183.549469,241.055496 180.760925,240.454773 178.223938,239.300919 
	C177.207596,238.838669 176.744965,237.158997 176.030289,236.033463 
	C177.708878,236.057114 179.387482,236.080750 181.632965,236.450256 
	C187.788986,237.366333 193.439194,237.593048 198.955292,238.573929 
	C213.121262,241.092896 227.249023,243.841278 241.351791,246.696838 
	C254.668381,249.393188 267.038574,254.037720 276.052124,265.396881 
	C276.321411,269.241241 276.582092,272.673981 276.686646,276.331512 
	C276.027710,277.719238 275.524963,278.882202 274.700439,280.136292 
	C273.933777,281.165283 273.488861,282.103149 273.043915,283.041016 
	C273.043915,283.041016 273.000000,283.000000 272.674561,283.010956 
	C262.224274,291.969940 250.667999,298.469635 237.640778,303.071442 
	C235.143280,304.304047 233.020966,305.560394 230.898651,306.816711 
z"/>
<path fill="#556683" opacity="1.000000" stroke="none" 
	d="
M24.662907,316.739563 
	C24.407003,317.587219 23.870487,318.632446 23.218868,318.709961 
	C16.113245,319.555115 8.989607,320.248871 1.435438,320.991913 
	C1.000000,320.250000 1.000000,319.500000 1.000000,318.375000 
	C8.776282,317.495941 16.552565,316.991852 24.662907,316.739563 
z"/>
<path fill="#9BA4B5" opacity="1.000000" stroke="none" 
	d="
M1.000000,346.333313 
	C8.836420,345.262360 16.668533,344.473724 24.511322,343.811462 
	C27.779602,343.535461 31.070614,343.528687 34.680592,343.914368 
	C35.004162,344.618591 34.998432,344.807983 34.992706,344.997375 
	C33.674427,345.106659 32.356148,345.215942 30.243095,345.258667 
	C22.629889,346.127289 15.811453,347.062469 8.993017,347.997681 
	C6.617069,348.073456 4.241121,348.149231 1.432587,348.112488 
	C1.000000,347.555542 1.000000,347.111115 1.000000,346.333313 
z"/>
<path fill="#FEFEFE" opacity="1.000000" stroke="none" 
	d="
M282.084778,64.127060 
	C282.809418,64.130341 283.534058,64.133621 284.987457,64.260071 
	C288.167236,64.545029 290.618286,64.706825 293.263672,64.881447 
	C291.588165,68.072075 290.741791,70.209053 289.458160,72.039375 
	C283.090302,81.119270 276.607117,90.118271 269.873444,99.172516 
	C269.445129,99.804909 269.307922,100.410568 269.033203,101.273331 
	C268.560486,101.992081 268.225311,102.453720 267.528870,102.913086 
	C265.347137,103.972435 263.205261,104.711060 261.759827,106.149529 
	C253.966461,113.905334 244.662109,117.842094 233.699371,118.309700 
	C232.084229,118.378593 230.534622,119.984200 228.954697,120.878807 
	C228.223969,120.945694 227.493256,121.012581 226.361359,120.582848 
	C220.155869,119.259743 214.351532,118.433250 208.288269,117.595222 
	C207.688751,117.526787 207.348160,117.469879 206.809280,117.089340 
	C201.744324,115.806511 196.877670,114.847313 191.581970,113.862640 
	C189.468018,113.574539 187.783081,113.311905 185.990845,112.736763 
	C183.827545,112.109161 181.771561,111.794075 179.267853,111.425407 
	C171.551971,111.214760 164.283813,111.057686 156.716476,110.649803 
	C154.333862,110.203682 152.250427,110.008362 149.807861,109.779373 
	C151.473846,104.040306 153.151581,98.750427 154.537003,93.385078 
	C157.335556,82.546921 160.086060,71.693123 162.584778,60.783569 
	C163.069290,58.668125 162.316208,56.269222 162.156357,53.625298 
	C162.034393,52.786518 161.890091,52.323513 161.745789,51.860512 
	C161.745789,51.860508 161.920914,52.019604 162.390106,52.008854 
	C163.901138,49.119682 165.817612,47.694534 168.987396,47.231049 
	C176.299103,46.161942 183.499023,43.791473 190.992950,45.780392 
	C201.007492,48.438282 211.127625,50.777245 220.979126,53.947124 
	C229.903168,56.818569 238.473404,60.774738 247.325089,63.896999 
	C249.358521,64.614258 251.905212,63.876431 254.215698,63.808243 
	C254.381332,63.760784 254.546951,63.713322 255.157471,63.873306 
	C256.724731,64.245377 257.847107,64.410004 258.997070,64.895432 
	C260.006592,65.606926 260.988556,65.997627 262.124481,66.737305 
	C267.400574,67.321732 272.521790,67.615227 277.646240,67.691933 
	C278.098358,67.698708 278.571716,66.288864 279.403442,65.454132 
	C280.521271,65.391350 281.270782,65.411415 282.060730,65.727509 
	C282.919891,66.111832 283.738617,66.200127 284.557343,66.288422 
	C284.203583,65.804764 283.849792,65.321106 283.239258,64.469040 
	C282.683258,64.109444 282.384003,64.118248 282.084778,64.127060 
z"/>
<path fill="#FBFBFC" opacity="1.000000" stroke="none" 
	d="
M77.302353,260.099304 
	C77.162674,260.814423 77.022995,261.529510 76.579178,262.690887 
	C75.538933,264.108551 74.802826,265.079987 73.700882,266.032257 
	C72.240013,265.010284 71.144989,264.007416 70.081284,262.650452 
	C70.261520,261.602112 70.410423,260.907898 70.825729,260.061646 
	C71.054863,258.605011 71.017586,257.300446 70.981888,255.610626 
	C71.115532,254.208221 71.247581,253.191010 71.700668,252.040161 
	C72.732323,247.273941 73.442955,242.641373 74.165680,237.687256 
	C74.260597,236.945145 74.343414,236.524612 74.738602,235.965881 
	C75.767143,231.882339 76.483315,227.936981 77.218658,223.598465 
	C77.122757,222.451614 77.007690,221.697937 76.892616,220.944260 
	C77.123749,219.274429 77.354874,217.604599 77.782639,215.568024 
	C78.228691,214.983261 78.355507,214.708710 78.713989,214.232651 
	C79.215294,212.666260 79.362335,211.244858 79.593475,209.522705 
	C79.721245,208.807938 79.764908,208.393906 80.068466,207.858871 
	C80.210175,207.156631 80.092003,206.575378 79.973824,205.994141 
	C80.160004,204.639145 80.346184,203.284164 80.805878,201.361069 
	C81.755966,197.879929 82.432556,194.966904 83.109131,192.053864 
	C83.247093,191.614563 83.385063,191.175247 83.790146,190.215698 
	C83.997787,189.110260 83.938309,188.525055 83.878830,187.939850 
	C84.022217,187.573273 84.165611,187.206680 84.718109,186.447220 
	C85.548378,184.634796 85.969543,183.215256 86.525032,181.433044 
	C86.787605,179.623611 86.915863,178.176849 87.044121,176.730087 
	C87.227837,176.091965 87.411545,175.453827 87.873978,174.317047 
	C88.300079,173.377396 88.447479,172.936371 88.887924,172.337494 
	C89.287178,171.392990 89.393394,170.606369 89.604103,169.476379 
	C89.609619,168.683258 89.510635,168.233490 89.411652,167.783737 
	C89.742020,166.865158 90.072372,165.946564 90.790260,164.498016 
	C92.849602,158.469269 94.473671,152.955414 96.203270,147.474869 
	C99.718628,136.335831 103.365822,125.237968 106.820938,114.080475 
	C111.133652,100.153610 115.095383,86.114876 119.596764,72.250450 
	C124.842834,56.092339 130.508408,40.070427 136.185181,23.869125 
	C136.620880,23.564453 136.843872,23.358940 137.047379,23.132290 
	C137.466599,23.112963 137.885803,23.093634 138.723663,23.453938 
	C140.528381,24.424074 141.914429,25.014580 143.461334,25.722351 
	C143.622177,25.839615 143.935242,26.085546 143.984070,26.451988 
	C144.615280,28.766903 145.969208,30.855646 145.644943,32.639294 
	C144.320877,39.922325 142.427032,47.099991 140.882584,54.346207 
	C140.564835,55.837013 140.846054,57.455486 140.821075,59.314003 
	C140.719833,60.006813 140.648712,60.400738 140.274063,60.940781 
	C139.262650,64.396019 138.554779,67.705147 137.806702,71.325851 
	C137.681000,72.047997 137.595520,72.458572 137.209564,73.024620 
	C133.635666,83.245544 130.207581,93.264000 127.131279,103.389336 
	C123.903275,114.014015 120.912903,124.714218 118.014236,135.434296 
	C116.445961,141.234238 115.285744,147.144516 113.883316,153.361572 
	C113.721970,154.434021 113.618752,155.149918 113.205826,155.989380 
	C112.109489,157.569138 111.071396,158.945374 110.578690,160.495026 
	C108.122185,168.221237 105.764107,175.979965 103.502571,183.765366 
	C103.221855,184.731720 103.721786,185.924850 103.811249,187.306137 
	C103.674919,187.985870 103.587334,188.372360 103.215523,188.930664 
	C100.860382,194.665939 98.731369,200.209122 96.776016,205.812897 
	C96.452393,206.740341 96.888039,207.932739 96.945038,209.376663 
	C97.037811,210.218384 97.158348,210.686111 97.278877,211.153854 
	C97.278877,211.153854 97.104141,211.042328 96.678398,211.019043 
	C95.496628,212.997040 94.740593,214.998306 93.920700,217.372849 
	C93.988144,218.210205 94.119461,218.674286 94.250771,219.138367 
	C94.250771,219.138367 94.060486,219.017792 93.630386,218.990555 
	C92.436462,220.973709 91.672638,222.984116 90.850082,225.359863 
	C90.916748,226.184601 91.042152,226.643982 91.167564,227.103378 
	C91.167564,227.103378 90.983124,226.979492 90.547119,226.992752 
	C89.025780,230.007965 87.940453,233.009933 86.801262,236.341965 
	C86.630150,237.101929 86.512901,237.531799 86.112320,238.059937 
	C85.173546,240.109146 84.518089,242.060135 83.810066,244.372711 
	C83.883942,245.184677 84.010391,245.635086 84.136841,246.085480 
	C84.136841,246.085480 83.964661,245.965149 83.536560,245.977325 
	C81.717476,249.638290 80.326508,253.287094 78.827583,257.149414 
	C78.551582,257.641632 78.329887,257.867767 77.748154,258.037903 
	C77.395294,258.722748 77.348824,259.411041 77.302353,260.099304 
z"/>
<path fill="#848FA4" opacity="1.000000" stroke="none" 
	d="
M135.991928,23.989414 
	C130.508408,40.070427 124.842834,56.092339 119.596764,72.250450 
	C115.095383,86.114876 111.133652,100.153610 106.820938,114.080475 
	C103.365822,125.237968 99.718628,136.335831 96.203270,147.474869 
	C94.473671,152.955414 92.849602,158.469269 90.869492,164.136841 
	C92.034668,157.619995 93.250488,150.864441 95.042068,144.265167 
	C97.724503,134.384415 100.796707,124.609062 103.733047,114.797836 
	C105.107773,110.204468 106.511261,105.618858 107.972725,101.052460 
	C113.418144,84.038086 118.663193,66.954445 124.448784,50.056122 
	C127.584412,40.897686 131.660080,32.061089 135.624481,23.298918 
	C135.937256,23.518517 135.991928,23.989412 135.991928,23.989414 
z"/>
<path fill="#77849B" opacity="1.000000" stroke="none" 
	d="
M276.043549,264.985291 
	C267.038574,254.037720 254.668381,249.393188 241.351791,246.696838 
	C227.249023,243.841278 213.121262,241.092896 198.955292,238.573929 
	C193.439194,237.593048 187.788986,237.366333 182.052368,236.452957 
	C188.956863,236.098450 196.008865,236.087097 203.732071,236.358887 
	C204.995850,236.664215 205.588455,236.686386 206.181046,236.708557 
	C216.509689,238.595306 226.988251,239.906616 237.120590,242.546768 
	C245.568542,244.748016 253.634186,248.445816 261.824890,251.595840 
	C268.758453,254.262405 274.622437,258.264343 277.591797,265.562134 
	C276.920807,265.529175 276.482178,265.257233 276.043549,264.985291 
z"/>
<path fill="#A7AFBE" opacity="1.000000" stroke="none" 
	d="
M253.982422,63.472855 
	C251.905212,63.876431 249.358521,64.614258 247.325089,63.896999 
	C238.473404,60.774738 229.903168,56.818569 220.979126,53.947124 
	C211.127625,50.777245 201.007492,48.438282 190.992950,45.780392 
	C183.499023,43.791473 176.299103,46.161942 168.987396,47.231049 
	C165.817612,47.694534 163.901138,49.119682 162.502472,52.045891 
	C162.006638,51.004608 161.867661,49.915539 162.146606,48.290607 
	C165.162064,46.722401 167.688126,45.407391 170.374924,44.728199 
	C173.848541,43.850109 177.450516,43.479790 180.997223,42.890839 
	C182.710754,42.903191 184.424286,42.915543 186.873764,43.224579 
	C194.407196,44.499115 201.204697,45.476963 208.002182,46.454811 
	C208.354736,46.489525 208.707306,46.524235 209.500336,46.845825 
	C212.368393,47.939262 214.795975,48.745827 217.223557,49.552387 
	C217.611572,49.673435 217.999588,49.794479 218.894882,50.231430 
	C223.270905,52.031284 227.139633,53.515232 231.008377,54.999176 
	C232.448318,55.614346 233.888260,56.229515 235.846848,57.176174 
	C238.315598,58.203575 240.265701,58.899490 242.215805,59.595406 
	C242.607254,59.700001 242.998688,59.804596 243.915817,60.224960 
	C247.041351,61.197735 249.641220,61.854752 252.241074,62.511768 
	C252.743759,62.720333 253.246445,62.928898 253.982422,63.472855 
z"/>
<path fill="#516280" opacity="1.000000" stroke="none" 
	d="
M270.164551,99.145767 
	C276.607117,90.118271 283.090302,81.119270 289.458160,72.039375 
	C290.741791,70.209053 291.588165,68.072075 293.263672,64.881447 
	C290.618286,64.706825 288.167236,64.545029 285.334045,64.150261 
	C287.862946,62.739460 290.690460,60.962322 293.707092,60.541904 
	C297.150940,60.061947 297.542419,63.218861 296.351227,65.301575 
	C288.218628,79.520889 281.062805,94.478691 267.568329,104.835388 
	C267.447845,104.004646 267.668976,103.460007 267.890106,102.915359 
	C268.225311,102.453720 268.560486,101.992081 269.311035,101.174423 
	C269.872437,100.260857 270.018494,99.703316 270.164551,99.145767 
z"/>
<path fill="#A7AFBE" opacity="1.000000" stroke="none" 
	d="
M162.134003,54.001072 
	C162.316208,56.269222 163.069290,58.668125 162.584778,60.783569 
	C160.086060,71.693123 157.335556,82.546921 154.537003,93.385078 
	C153.151581,98.750427 151.473846,104.040306 149.807861,109.779373 
	C152.250427,110.008362 154.333862,110.203682 156.467804,110.932350 
	C147.108978,113.561790 146.888794,113.263824 149.373062,104.247681 
	C150.763565,99.201134 151.753494,94.044212 152.923920,88.937019 
	C155.612839,77.563370 158.301758,66.189713 161.293945,54.403748 
	C161.776138,53.994648 161.955063,53.997860 162.134003,54.001072 
z"/>
<path fill="#A8B0BF" opacity="1.000000" stroke="none" 
	d="
M113.941452,153.005020 
	C115.285744,147.144516 116.445961,141.234238 118.014236,135.434296 
	C120.912903,124.714218 123.903275,114.014015 127.131279,103.389336 
	C130.207581,93.264000 133.635666,83.245544 137.440186,73.358597 
	C138.119858,73.763123 138.268417,73.989143 138.416992,74.215157 
	C138.307114,74.908195 138.197235,75.601242 137.803833,76.886345 
	C136.851074,80.075401 136.181824,82.672401 135.512558,85.269394 
	C135.393478,85.648376 135.274414,86.027351 134.831573,86.927887 
	C133.509964,91.054062 132.512115,94.658684 131.514267,98.263298 
	C131.412994,98.646500 131.311737,99.029701 130.867935,99.886787 
	C130.123062,101.642700 129.720734,102.924728 129.318420,104.206764 
	C128.934891,105.566872 128.551361,106.926971 127.833832,108.852005 
	C126.789192,112.017792 126.078537,114.618645 125.367889,117.219498 
	C125.272461,117.611702 125.177032,118.003899 124.764786,118.948212 
	C122.438293,127.412178 120.428627,135.324036 118.418961,143.235886 
	C118.329506,143.624496 118.240036,144.013123 117.853622,144.933685 
	C116.351601,147.978760 115.146523,150.491898 113.941452,153.005020 
z"/>
<path fill="#516280" opacity="1.000000" stroke="none" 
	d="
M152.605850,89.114731 
	C151.753494,94.044212 150.763565,99.201134 149.373062,104.247681 
	C146.888794,113.263824 147.108978,113.561790 156.766968,111.183151 
	C164.283813,111.057686 171.551971,111.214760 179.403442,111.711029 
	C181.429245,112.792168 182.871704,113.534111 184.314178,114.276054 
	C181.878677,114.252350 179.443130,114.203461 177.007706,114.209610 
	C169.312653,114.229034 161.617081,114.331955 153.922913,114.265312 
	C151.402039,114.243477 148.430527,114.492256 146.558258,113.260117 
	C145.627579,112.647629 146.364685,108.869308 146.960434,106.690826 
	C148.559662,100.843086 150.489334,95.085709 152.605850,89.114731 
z"/>
<path fill="#909AAD" opacity="1.000000" stroke="none" 
	d="
M238.015976,303.095184 
	C250.667999,298.469635 262.224274,291.969940 272.696442,283.031555 
	C270.101990,286.125519 267.666992,290.104126 264.117279,292.115662 
	C255.674683,296.899902 246.704758,300.753601 237.276001,305.019043 
	C236.399155,305.016693 236.194199,304.978546 236.155762,304.718384 
	C236.886856,304.029297 237.451416,303.562256 238.015976,303.095184 
z"/>
<path fill="#556683" opacity="1.000000" stroke="none" 
	d="
M72.008980,311.107452 
	C70.681221,311.211578 69.353462,311.315704 67.235016,311.328522 
	C61.629444,312.157074 56.814571,313.076935 51.999702,313.996796 
	C50.535255,314.063660 49.070805,314.130554 47.227890,313.968597 
	C51.681362,312.449036 56.465893,310.927338 61.356705,309.923370 
	C68.158928,308.527008 75.027519,307.430420 81.896507,306.397034 
	C84.002350,306.080170 86.202728,306.391632 88.681992,306.922607 
	C89.001091,307.611328 88.998024,307.792847 88.994965,307.974335 
	C88.284325,308.036469 87.573692,308.098572 86.104202,308.110626 
	C80.899895,309.076172 76.454437,310.091797 72.008980,311.107452 
z"/>
<path fill="#BBC1CD" opacity="1.000000" stroke="none" 
	d="
M267.528870,102.913086 
	C267.668976,103.460007 267.447845,104.004646 267.220215,104.848145 
	C267.213715,105.147003 267.173187,105.155830 266.858276,105.208450 
	C265.934021,106.061897 265.324707,106.862724 264.715393,107.663544 
	C263.952698,108.304962 263.190002,108.946388 261.882690,109.812546 
	C258.979919,111.492165 256.779327,113.368965 254.233002,114.319908 
	C247.569656,116.808372 240.755264,118.892365 234.001083,121.137581 
	C232.575775,121.178085 231.150482,121.218597 229.339935,121.068954 
	C230.534622,119.984200 232.084229,118.378593 233.699371,118.309700 
	C244.662109,117.842094 253.966461,113.905334 261.759827,106.149529 
	C263.205261,104.711060 265.347137,103.972435 267.528870,102.913086 
z"/>
<path fill="#77849B" opacity="1.000000" stroke="none" 
	d="
M175.719727,235.785889 
	C176.744965,237.158997 177.207596,238.838669 178.223938,239.300919 
	C180.760925,240.454773 183.549469,241.055496 186.598846,242.276184 
	C186.994049,243.072449 187.027466,243.470734 187.060883,243.869019 
	C180.419510,242.475952 173.778152,241.082886 166.681030,239.292068 
	C167.150665,237.697937 168.076080,236.501556 169.001480,235.305176 
	C171.137375,235.382889 173.273285,235.460602 175.719727,235.785889 
z"/>
<path fill="#B4BBC8" opacity="1.000000" stroke="none" 
	d="
M187.450439,243.917297 
	C187.027466,243.470734 186.994049,243.072449 186.951019,242.374756 
	C191.381958,243.110611 195.940201,243.801025 200.234070,245.266205 
	C205.937103,247.212234 211.433899,249.762619 217.082428,252.389465 
	C216.364304,252.860046 215.583054,252.994507 214.309082,252.725998 
	C213.220978,252.198151 212.625580,252.073273 212.030182,251.948395 
	C211.097702,251.340088 210.243118,250.472061 209.220215,250.165253 
	C202.113037,248.033447 194.970901,246.018219 187.450439,243.917297 
z"/>
<path fill="#516280" opacity="1.000000" stroke="none" 
	d="
M186.098160,113.049271 
	C187.783081,113.311905 189.468018,113.574539 191.825531,114.140633 
	C197.334595,115.433716 202.171097,116.423340 207.007584,117.412964 
	C207.348160,117.469879 207.688751,117.526787 208.509506,117.886322 
	C213.332840,119.176529 217.675995,120.164108 222.019150,121.151688 
	C218.276352,121.252602 214.382294,122.066383 210.821243,121.310760 
	C202.601898,119.566704 194.544098,117.061256 186.173798,114.307838 
	C185.983917,113.517097 186.041046,113.283180 186.098160,113.049271 
z"/>
<path fill="#A8B0BF" opacity="1.000000" stroke="none" 
	d="
M140.851181,59.015118 
	C140.846054,57.455486 140.564835,55.837013 140.882584,54.346207 
	C142.427032,47.099991 144.320877,39.922325 145.644943,32.639294 
	C145.969208,30.855646 144.615280,28.766903 144.330612,26.403040 
	C145.092636,25.985954 145.556961,25.984259 146.021271,25.982563 
	C146.021271,25.982563 146.343506,26.198471 146.567871,26.571476 
	C147.211227,27.297054 147.630203,27.649624 148.049179,28.002193 
	C148.111908,29.717430 148.174637,31.432667 147.918915,33.800941 
	C146.900955,37.723969 146.201431,40.993958 145.501923,44.263950 
	C145.373917,44.943970 145.245895,45.623985 144.844696,46.915283 
	C143.331390,51.356079 142.091293,55.185600 140.851181,59.015118 
z"/>
<path fill="#D0D4DC" opacity="1.000000" stroke="none" 
	d="
M279.035187,65.536980 
	C278.571716,66.288864 278.098358,67.698708 277.646240,67.691933 
	C272.521790,67.615227 267.400574,67.321732 262.161926,66.436447 
	C262.026947,65.392899 262.008545,64.999168 261.990173,64.605446 
	C266.679443,64.550011 271.368713,64.494576 276.693939,64.641403 
	C277.898315,65.074776 278.466736,65.305878 279.035187,65.536980 
z"/>
<path fill="#A8B0BF" opacity="1.000000" stroke="none" 
	d="
M103.859985,187.012894 
	C103.721786,185.924850 103.221855,184.731720 103.502571,183.765366 
	C105.764107,175.979965 108.122185,168.221237 110.578690,160.495026 
	C111.071396,158.945374 112.109489,157.569138 113.424622,156.321320 
	C114.094940,156.753525 114.236755,156.977341 114.378571,157.201141 
	C114.317207,157.599884 114.255844,157.998627 113.874123,158.893188 
	C112.860161,161.676697 112.166550,163.964355 111.472954,166.252029 
	C111.374229,166.636505 111.275497,167.020966 110.880249,167.946121 
	C108.342476,174.662170 106.101227,180.837524 103.859985,187.012894 
z"/>
<path fill="#516280" opacity="1.000000" stroke="none" 
	d="
M234.302490,121.400635 
	C240.755264,118.892365 247.569656,116.808372 254.233002,114.319908 
	C256.779327,113.368965 258.979919,111.492165 261.696899,110.048615 
	C258.770844,112.672554 255.847763,116.184898 252.115768,117.685486 
	C246.609802,119.899361 241.117355,123.434982 234.302490,121.400635 
z"/>
<path fill="#556683" opacity="1.000000" stroke="none" 
	d="
M148.016846,297.183228 
	C147.502731,297.166687 146.988632,297.150146 146.162689,296.905273 
	C146.410248,296.127045 146.888763,295.232788 147.541321,295.079529 
	C155.814972,293.136047 164.113632,291.299133 172.701172,289.935303 
	C172.997452,290.622650 172.998459,290.809753 172.999466,290.996826 
	C172.591766,291.051666 172.184082,291.106506 171.098450,291.120972 
	C167.614227,292.063873 164.807953,293.047150 162.001678,294.030426 
	C161.000015,294.156494 159.998367,294.282562 158.240494,294.336243 
	C154.328461,295.236938 151.172653,296.210083 148.016846,297.183228 
z"/>
<path fill="#556683" opacity="1.000000" stroke="none" 
	d="
M208.564911,280.344025 
	C207.290421,280.617615 206.015930,280.891235 204.112732,281.181213 
	C201.323334,282.143158 199.162643,283.088745 197.001953,284.034363 
	C196.597214,284.091461 196.192459,284.148560 195.123581,284.162720 
	C192.309158,285.115082 190.158859,286.110382 188.008575,287.105682 
	C187.201004,287.153625 186.393417,287.201569 185.238739,287.038574 
	C187.080566,285.527863 189.125671,283.787598 191.487213,283.016541 
	C197.071045,281.193420 202.805313,279.831116 208.852417,278.606628 
	C209.005692,279.401855 208.785294,279.872925 208.564911,280.344025 
z"/>
<path fill="#465979" opacity="1.000000" stroke="none" 
	d="
M74.066711,266.051392 
	C74.802826,265.079987 75.538933,264.108551 76.571472,263.056335 
	C75.975632,265.269714 75.351631,267.736572 74.046188,269.764832 
	C73.586517,270.479034 70.725342,270.728119 70.231361,270.133667 
	C68.843361,268.463379 67.509506,266.303040 67.305717,264.223145 
	C67.114853,262.275208 68.397102,260.182983 69.517380,258.393738 
	C70.188904,259.160065 70.374115,259.686859 70.559326,260.213684 
	C70.410423,260.907898 70.261520,261.602112 69.810532,262.854889 
	C70.180733,265.197540 70.853020,266.981659 71.525299,268.765747 
	C72.372437,267.860962 73.219574,266.956177 74.066711,266.051392 
z"/>
<path fill="#9BA4B5" opacity="1.000000" stroke="none" 
	d="
M132.257324,330.912689 
	C139.021042,329.248260 146.185760,327.780975 153.656494,326.737823 
	C153.962524,327.161957 153.915970,327.629852 153.915970,327.629852 
	C152.933197,327.834198 151.950409,328.038574 150.209763,328.237915 
	C145.632095,329.152100 141.812302,330.071259 137.992508,330.990417 
	C136.214447,331.030243 134.436386,331.070038 132.257324,330.912689 
z"/>
<path fill="#465979" opacity="1.000000" stroke="none" 
	d="
M118.718185,143.075775 
	C120.428627,135.324036 122.438293,127.412178 124.712784,119.246628 
	C125.180351,119.594055 125.684639,120.281815 125.540558,120.783295 
	C123.416817,128.175293 121.206886,135.542526 118.718185,143.075775 
z"/>
<path fill="#465979" opacity="1.000000" stroke="none" 
	d="
M103.811249,187.306137 
	C106.101227,180.837524 108.342476,174.662170 110.855499,168.243011 
	C111.297516,169.585678 112.010651,171.357346 111.543549,172.726318 
	C109.576256,178.492096 107.256714,184.137695 104.530441,189.634354 
	C103.829803,189.213928 103.664772,188.986389 103.499741,188.758850 
	C103.587334,188.372360 103.674919,187.985870 103.811249,187.306137 
z"/>
<path fill="#9BA4B5" opacity="1.000000" stroke="none" 
	d="
M210.215240,313.936096 
	C216.143097,311.342651 222.421600,308.953888 228.863892,306.870117 
	C228.528030,307.693634 228.028366,308.212189 226.937668,308.863800 
	C224.491364,309.707092 222.636108,310.417358 220.780853,311.127655 
	C220.102676,311.358398 219.424500,311.589111 218.058777,311.934082 
	C215.913300,312.732483 214.455383,313.416687 212.997452,314.100861 
	C212.186935,314.114197 211.376434,314.127502 210.215240,313.936096 
z"/>
<path fill="#556683" opacity="1.000000" stroke="none" 
	d="
M114.003212,304.038025 
	C112.770332,304.178833 111.537460,304.319641 109.983215,304.227356 
	C109.758171,303.785126 109.854500,303.576019 109.950821,303.366882 
	C115.717636,300.326965 121.736702,298.478912 128.677322,300.020813 
	C128.949936,300.995209 128.902145,301.420074 128.854370,301.844940 
	C127.526115,301.638489 126.197853,301.432037 124.152924,301.193909 
	C120.291908,302.120819 117.147560,303.079407 114.003212,304.038025 
z"/>
<path fill="#3F5374" opacity="1.000000" stroke="none" 
	d="
M207.813766,46.135120 
	C201.204697,45.476963 194.407196,44.499115 187.301758,43.253021 
	C194.288116,40.887939 201.102005,42.292877 207.813766,46.135120 
z"/>
<path fill="#425575" opacity="1.000000" stroke="none" 
	d="
M9.307234,348.254028 
	C15.811453,347.062469 22.629889,346.127289 29.854420,345.337036 
	C26.139299,346.562683 22.064274,347.915405 17.880182,348.625885 
	C15.210785,349.079193 12.379919,348.581635 9.307234,348.254028 
z"/>
<path fill="#3F5374" opacity="1.000000" stroke="none" 
	d="
M180.681427,42.640205 
	C177.450516,43.479790 173.848541,43.850109 170.374924,44.728199 
	C167.688126,45.407391 165.162064,46.722401 162.218689,47.873795 
	C162.334854,47.055359 162.545853,45.701843 163.299255,45.247250 
	C168.578049,42.062077 174.397186,41.688049 180.681427,42.640205 
z"/>
<path fill="#B4BBC8" opacity="1.000000" stroke="none" 
	d="
M227.451340,258.618744 
	C232.183975,260.563782 231.753052,264.660248 229.854431,267.630005 
	C228.090820,270.388580 224.544327,272.007263 221.545959,273.818054 
	C221.815933,272.946686 222.322769,272.385040 222.829590,271.823425 
	C222.829605,271.823425 223.071121,271.590210 223.466461,271.410828 
	C224.395218,270.644684 224.928650,270.057922 225.462097,269.471161 
	C228.123520,267.496826 230.077087,265.266296 228.042389,261.112122 
	C227.513931,260.050385 227.225037,259.555695 227.064423,258.949860 
	C227.192703,258.838684 227.451340,258.618744 227.451340,258.618744 
z"/>
<path fill="#9BA4B5" opacity="1.000000" stroke="none" 
	d="
M40.799683,343.580841 
	C46.651497,342.493103 52.503315,341.405334 58.683903,340.827942 
	C59.000919,341.524536 58.989162,341.710724 58.977409,341.896912 
	C58.276600,341.982117 57.575787,342.067352 56.127838,342.107605 
	C52.921776,342.758606 50.462852,343.454590 48.003925,344.150574 
	C46.686226,344.251404 45.368530,344.352234 43.257217,344.314636 
	C41.908962,343.977753 41.354324,343.779297 40.799683,343.580841 
z"/>
<path fill="#9BA4B5" opacity="1.000000" stroke="none" 
	d="
M64.324341,341.047577 
	C69.764664,339.654449 75.620056,338.470673 81.702629,337.771545 
	C78.952896,339.205475 75.975975,340.154785 72.999062,341.104065 
	C70.245850,341.155029 67.492630,341.205994 64.324341,341.047577 
z"/>
<path fill="#9BA4B5" opacity="1.000000" stroke="none" 
	d="
M113.307373,334.210388 
	C118.121521,332.732239 123.274712,331.520874 128.500244,330.841309 
	C125.580688,332.352417 122.588806,333.331696 119.596916,334.310974 
	C117.613419,334.366394 115.629921,334.421814 113.307373,334.210388 
z"/>
<path fill="#BBC1CD" opacity="1.000000" stroke="none" 
	d="
M222.432556,121.141968 
	C217.675995,120.164108 213.332840,119.176529 208.768433,117.897850 
	C214.351532,118.433250 220.155869,119.259743 226.014725,120.447632 
	C224.994812,120.916763 223.920395,121.024498 222.432556,121.141968 
z"/>
<path fill="#A8B0BF" opacity="1.000000" stroke="none" 
	d="
M103.215515,188.930664 
	C103.664772,188.986389 103.829803,189.213928 104.236359,189.787323 
	C104.390022,190.546494 104.302155,190.959778 103.884422,191.878708 
	C102.835953,194.665268 102.117355,196.946167 101.398766,199.227081 
	C101.309654,199.618286 101.220551,200.009506 100.826538,200.932175 
	C99.338692,203.976654 98.155739,206.489670 96.972794,209.002686 
	C96.888039,207.932739 96.452393,206.740341 96.776016,205.812897 
	C98.731369,200.209122 100.860382,194.665939 103.215515,188.930664 
z"/>
<path fill="#556683" opacity="1.000000" stroke="none" 
	d="
M31.027548,317.239105 
	C29.577763,317.266205 28.127977,317.293304 26.302040,317.095062 
	C30.398659,312.741455 35.915913,313.135284 41.449745,313.831299 
	C38.021984,315.321320 34.524765,316.280212 31.027548,317.239105 
z"/>
<path fill="#9BA4B5" opacity="1.000000" stroke="none" 
	d="
M182.982315,320.365387 
	C187.798691,319.037231 192.615051,317.709076 197.617188,316.862854 
	C197.475677,317.813843 197.148422,318.282867 196.821167,318.751923 
	C195.139206,319.163177 193.457245,319.574432 191.089935,319.895874 
	C189.614670,320.027191 188.824768,320.248352 188.034866,320.469513 
	C186.646454,320.764313 185.258041,321.059143 183.421753,321.162292 
	C182.976685,320.768860 182.979492,320.567108 182.982315,320.365387 
z"/>
<path fill="#465979" opacity="1.000000" stroke="none" 
	d="
M71.379639,252.173813 
	C71.247581,253.191010 71.115532,254.208221 70.708298,255.618652 
	C70.250671,256.008423 70.068222,256.004913 69.885773,256.001373 
	C68.557953,250.433334 68.648216,245.050568 72.427170,240.363983 
	C72.386337,244.483704 71.882988,248.328766 71.379639,252.173813 
z"/>
<path fill="#425575" opacity="1.000000" stroke="none" 
	d="
M91.988853,336.911530 
	C92.996605,336.856018 94.004356,336.800507 95.817688,336.863281 
	C100.804466,336.431274 104.985657,335.880951 109.166840,335.330627 
	C104.259010,339.563568 98.403587,338.852234 92.310501,337.978027 
	C91.998650,337.272980 91.993752,337.092255 91.988853,336.911530 
z"/>
<path fill="#9BA4B5" opacity="1.000000" stroke="none" 
	d="
M109.561752,335.208130 
	C104.985657,335.880951 100.804466,336.431274 96.194504,336.828705 
	C100.808701,335.636627 105.851662,334.597473 111.081863,333.858490 
	C110.831619,334.467651 110.394142,334.776642 109.561752,335.208130 
z"/>
<path fill="#77849B" opacity="1.000000" stroke="none" 
	d="
M275.022186,280.045166 
	C275.524963,278.882202 276.027710,277.719238 276.978333,276.184784 
	C277.963226,273.183594 278.500305,270.553925 279.037354,267.924225 
	C279.523987,269.958679 280.870941,272.285522 280.301544,273.961090 
	C279.380219,276.672241 277.199738,278.955475 275.252075,281.251282 
	C274.976227,280.737122 274.999207,280.391144 275.022186,280.045166 
z"/>
<path fill="#9BA4B5" opacity="1.000000" stroke="none" 
	d="
M155.805130,326.551239 
	C159.732529,325.545380 163.659943,324.539490 167.812195,323.837097 
	C168.037048,324.140564 168.234436,324.559113 167.813889,324.737915 
	C167.198074,325.198914 167.002808,325.481110 166.807556,325.763306 
	C164.474762,326.174042 162.141953,326.584778 159.006760,326.907928 
	C157.404617,326.730652 156.604874,326.640930 155.805130,326.551239 
z"/>
<path fill="#B7BDCA" opacity="1.000000" stroke="none" 
	d="
M31.321781,317.482300 
	C34.524765,316.280212 38.021984,315.321320 41.776806,314.065979 
	C43.467205,313.749268 44.899994,313.729004 46.706749,313.925476 
	C41.925816,315.336639 36.770912,316.531067 31.321781,317.482300 
z"/>
<path fill="#465979" opacity="1.000000" stroke="none" 
	d="
M140.821075,59.314003 
	C142.091293,55.185600 143.331390,51.356079 144.837158,47.261944 
	C144.150833,51.848965 143.198853,56.700603 141.739624,61.600853 
	C141.014099,61.364532 140.795853,61.079601 140.577591,60.794666 
	C140.648712,60.400738 140.719833,60.006813 140.821075,59.314003 
z"/>
<path fill="#B7BDCA" opacity="1.000000" stroke="none" 
	d="
M109.590363,303.397217 
	C109.854500,303.576019 109.758171,303.785126 109.525902,304.312927 
	C105.115692,305.633057 100.841431,306.634521 96.517609,307.101379 
	C99.760521,305.585693 103.053001,304.604553 106.345474,303.623413 
	C107.306953,303.558105 108.268433,303.492859 109.590363,303.397217 
z"/>
<path fill="#B7BDCA" opacity="1.000000" stroke="none" 
	d="
M71.700668,252.040161 
	C71.882988,248.328766 72.386337,244.483704 72.752075,240.246765 
	C72.701889,239.444290 72.789314,239.033722 73.211395,238.313080 
	C73.748566,238.004913 73.951080,238.006851 74.153587,238.008804 
	C73.442955,242.641373 72.732323,247.273941 71.700668,252.040161 
z"/>
<path fill="#556683" opacity="1.000000" stroke="none" 
	d="
M105.915428,303.421997 
	C103.053001,304.604553 99.760521,305.585693 96.226982,306.858276 
	C95.180328,307.171722 94.374733,307.193756 93.222923,307.006958 
	C96.335526,302.983246 100.826347,302.805511 105.915428,303.421997 
z"/>
<path fill="#425575" opacity="1.000000" stroke="none" 
	d="
M73.280861,341.356628 
	C75.975975,340.154785 78.952896,339.205475 82.114975,337.967560 
	C82.915092,337.598572 83.530037,337.518219 84.512497,337.723450 
	C84.926811,338.193237 84.973610,338.377502 85.020409,338.561737 
	C81.201157,339.577545 77.381905,340.593353 73.280861,341.356628 
z"/>
<path fill="#3F5374" opacity="1.000000" stroke="none" 
	d="
M230.975830,54.636032 
	C227.139633,53.515232 223.270905,52.031284 219.198151,50.266098 
	C222.977203,51.414204 226.960236,52.843544 230.975830,54.636032 
z"/>
<path fill="#465979" opacity="1.000000" stroke="none" 
	d="
M114.674255,157.040787 
	C114.236755,156.977341 114.094940,156.753525 113.734329,156.197769 
	C113.618752,155.149918 113.721970,154.434021 113.883316,153.361572 
	C115.146523,150.491898 116.351601,147.978760 117.823578,145.231506 
	C120.491653,149.862122 115.589066,152.808853 114.674255,157.040787 
z"/>
<path fill="#B7BDCA" opacity="1.000000" stroke="none" 
	d="
M77.199478,223.991638 
	C76.483315,227.936981 75.767143,231.882339 74.487656,235.632095 
	C73.757942,235.213455 73.591545,234.990402 73.425156,234.767349 
	C73.534828,234.072723 73.644508,233.378098 74.055771,232.129120 
	C75.304733,229.047073 76.252106,226.519348 77.199478,223.991638 
z"/>
<path fill="#9BA4B5" opacity="1.000000" stroke="none" 
	d="
M170.310272,324.059631 
	C173.456085,322.673950 176.989334,321.480682 180.750748,320.752106 
	C178.983704,322.145813 176.988495,323.074829 174.993286,324.003784 
	C173.561432,324.086548 172.129593,324.169281 170.310272,324.059631 
z"/>
<path fill="#909AAD" opacity="1.000000" stroke="none" 
	d="
M278.974792,267.641724 
	C278.500305,270.553925 277.963226,273.183594 277.134491,275.960022 
	C276.582092,272.673981 276.321411,269.241241 276.052124,265.396881 
	C276.482178,265.257233 276.920807,265.529175 277.592224,265.914612 
	C278.187378,266.471832 278.549805,266.915497 278.974792,267.641724 
z"/>
<path fill="#A8B0BF" opacity="1.000000" stroke="none" 
	d="
M140.274063,60.940781 
	C140.795853,61.079601 141.014099,61.364532 141.443451,61.819420 
	C141.585419,62.643345 141.516281,63.297310 141.125992,64.450623 
	C139.818863,66.971405 138.832886,68.992836 137.846909,71.014267 
	C138.554779,67.705147 139.262650,64.396019 140.274063,60.940781 
z"/>
<path fill="#556683" opacity="1.000000" stroke="none" 
	d="
M140.544495,298.256409 
	C139.907349,298.374603 139.270203,298.492767 138.068207,298.472412 
	C135.271545,298.751068 133.039719,299.168243 130.807907,299.585419 
	C133.248169,296.225403 136.675171,295.790558 140.699951,296.834473 
	C140.825653,297.639160 140.685074,297.947815 140.544495,298.256409 
z"/>
<path fill="#3F5374" opacity="1.000000" stroke="none" 
	d="
M138.274185,331.244141 
	C141.812302,330.071259 145.632095,329.152100 149.843979,328.333191 
	C146.342667,329.454895 142.449265,330.476379 138.274185,331.244141 
z"/>
<path fill="#304669" opacity="1.000000" stroke="none" 
	d="
M168.801758,235.015747 
	C168.076080,236.501556 167.150665,237.697937 166.292511,239.212616 
	C164.996796,238.852463 163.633835,238.174011 162.270874,237.495544 
	C164.381271,236.572479 166.491653,235.649414 168.801758,235.015747 
z"/>
<path fill="#465979" opacity="1.000000" stroke="none" 
	d="
M77.218651,223.598465 
	C76.252106,226.519348 75.304733,229.047073 74.043701,231.776611 
	C74.553429,228.334503 75.376816,224.690567 76.546410,220.995438 
	C77.007690,221.697937 77.122757,222.451614 77.218651,223.598465 
z"/>
<path fill="#465979" opacity="1.000000" stroke="none" 
	d="
M82.740570,192.040253 
	C82.432556,194.966904 81.755966,197.879929 80.766953,200.951599 
	C78.278496,197.488113 79.549095,194.593536 82.740570,192.040253 
z"/>
<path fill="#A8B0BF" opacity="1.000000" stroke="none" 
	d="
M78.935532,256.935883 
	C80.326508,253.287094 81.717476,249.638290 83.442749,245.930084 
	C83.904709,246.332291 84.032364,246.793915 83.834976,247.811188 
	C83.001564,249.575729 82.493202,250.784637 81.984833,251.993530 
	C81.812080,252.342133 81.639320,252.690750 81.125923,253.495087 
	C80.168701,254.945847 79.552116,255.940872 78.935532,256.935883 
z"/>
<path fill="#465979" opacity="1.000000" stroke="none" 
	d="
M131.791779,98.087524 
	C132.512115,94.658684 133.509964,91.054062 134.786530,87.222672 
	C134.066605,90.634521 133.067947,94.273132 131.791779,98.087524 
z"/>
<path fill="#3F5374" opacity="1.000000" stroke="none" 
	d="
M120.008881,334.507690 
	C122.588806,333.331696 125.580688,332.352417 128.802429,331.073792 
	C129.511948,330.764648 129.991608,330.754883 130.767944,330.950500 
	C127.516701,332.338745 123.968781,333.521576 120.008881,334.507690 
z"/>
<path fill="#B4BBC8" opacity="1.000000" stroke="none" 
	d="
M219.001999,252.971634 
	C221.731339,254.640488 224.460678,256.309357 227.320679,258.298462 
	C227.451340,258.618744 227.192703,258.838684 226.806900,258.813507 
	C225.774887,258.393188 225.128693,257.998047 224.482498,257.602905 
	C224.482498,257.602905 224.408585,257.542175 224.226990,257.223846 
	C223.033264,256.596436 222.021103,256.287323 221.008957,255.978256 
	C220.645874,255.590576 220.282791,255.202896 219.624908,254.406448 
	C219.220749,253.655670 219.111374,253.313644 219.001999,252.971634 
z"/>
<path fill="#465979" opacity="1.000000" stroke="none" 
	d="
M145.796021,44.103905 
	C146.201431,40.993958 146.900955,37.723969 147.902405,34.230221 
	C147.499588,37.318928 146.794846,40.631393 145.796021,44.103905 
z"/>
<path fill="#465979" opacity="1.000000" stroke="none" 
	d="
M96.945030,209.376663 
	C98.155739,206.489670 99.338692,203.976654 100.777344,201.229126 
	C100.003380,204.333069 98.973709,207.671509 97.611465,211.081909 
	C97.158348,210.686111 97.037811,210.218384 96.945030,209.376663 
z"/>
<path fill="#9BA4B5" opacity="1.000000" stroke="none" 
	d="
M199.978683,316.556671 
	C202.535446,315.508209 205.092224,314.459747 207.827423,313.713409 
	C207.886673,314.327850 207.767471,314.640198 207.080902,315.037689 
	C205.225418,315.881714 203.937286,316.640564 202.649170,317.399414 
	C202.000977,317.482971 201.352783,317.566498 200.351273,317.392944 
	C199.991547,316.942780 199.985123,316.749725 199.978683,316.556671 
z"/>
<path fill="#465979" opacity="1.000000" stroke="none" 
	d="
M86.729080,176.743530 
	C86.915863,178.176849 86.787605,179.623611 86.262093,181.523956 
	C85.244240,182.653381 84.623650,183.329254 84.003067,184.005127 
	C84.806717,181.589066 85.610374,179.173019 86.729080,176.743530 
z"/>
<path fill="#465979" opacity="1.000000" stroke="none" 
	d="
M137.806702,71.325851 
	C138.832886,68.992836 139.818863,66.971405 141.087524,64.777161 
	C140.581390,67.698235 139.792572,70.792122 138.710388,74.050583 
	C138.268417,73.989143 138.119858,73.763123 137.740662,73.203117 
	C137.595520,72.458572 137.681000,72.047997 137.806702,71.325851 
z"/>
<path fill="#425575" opacity="1.000000" stroke="none" 
	d="
M175.225189,324.258484 
	C176.988495,323.074829 178.983704,322.145813 181.138184,320.935089 
	C181.669540,320.575348 182.041641,320.497314 182.698029,320.392334 
	C182.979492,320.567108 182.976685,320.768860 183.006729,321.271790 
	C180.512100,322.553009 177.984604,323.533081 175.225189,324.258484 
z"/>
<path fill="#A8B0BF" opacity="1.000000" stroke="none" 
	d="
M86.855118,236.011871 
	C87.940453,233.009933 89.025780,230.007965 90.449646,226.939438 
	C90.874138,227.646286 90.960083,228.419693 90.765717,229.813049 
	C89.275307,232.292633 88.065208,234.152252 86.855118,236.011871 
z"/>
<path fill="#556683" opacity="1.000000" stroke="none" 
	d="
M177.015015,290.167908 
	C176.508652,290.174133 176.002274,290.180389 175.178711,289.976257 
	C177.405075,288.625244 179.948639,287.484589 182.557831,286.863251 
	C180.753967,288.311005 178.884491,289.239441 177.015015,290.167908 
z"/>
<path fill="#3F5374" opacity="1.000000" stroke="none" 
	d="
M252.118637,62.201572 
	C249.641220,61.854752 247.041351,61.197735 244.217957,60.261623 
	C246.661682,60.618809 249.328949,61.255093 252.118637,62.201572 
z"/>
<path fill="#465979" opacity="1.000000" stroke="none" 
	d="
M79.808578,207.979874 
	C79.764908,208.393906 79.721245,208.807938 79.269928,209.683731 
	C78.694763,211.556198 78.527245,212.966919 78.359726,214.377625 
	C78.355507,214.708710 78.228691,214.983261 77.752312,215.146271 
	C77.732864,212.436691 77.940384,209.782104 78.619461,207.203552 
	C79.330200,207.513000 79.569389,207.746429 79.808578,207.979874 
z"/>
<path fill="#465979" opacity="1.000000" stroke="none" 
	d="
M125.673141,117.086365 
	C126.078537,114.618645 126.789192,112.017792 127.792618,109.207420 
	C130.088379,112.366196 127.731567,114.579781 125.673141,117.086365 
z"/>
<path fill="#465979" opacity="1.000000" stroke="none" 
	d="
M135.802490,85.116150 
	C136.181824,82.672401 136.851074,80.075401 137.786865,77.236977 
	C137.399750,79.651329 136.746094,82.307114 135.802490,85.116150 
z"/>
<path fill="#465979" opacity="1.000000" stroke="none" 
	d="
M86.801254,236.341949 
	C88.065208,234.152252 89.275307,232.292633 90.737854,230.212799 
	C90.055099,232.554276 89.119896,235.115982 87.588135,237.844559 
	C86.792946,237.994873 86.594299,237.978287 86.395645,237.961685 
	C86.512901,237.531799 86.630150,237.101929 86.801254,236.341949 
z"/>
<path fill="#425575" opacity="1.000000" stroke="none" 
	d="
M48.269463,344.392029 
	C50.462852,343.454590 52.921776,342.758606 55.780342,342.169525 
	C53.631657,343.062103 51.083328,343.847809 48.269463,344.392029 
z"/>
<path fill="#465979" opacity="1.000000" stroke="none" 
	d="
M101.688965,199.079803 
	C102.117355,196.946167 102.835953,194.665268 103.855606,192.194153 
	C103.430824,194.313477 102.704994,196.623001 101.688965,199.079803 
z"/>
<path fill="#B4BBC8" opacity="1.000000" stroke="none" 
	d="
M177.264267,290.401855 
	C178.884491,289.239441 180.753967,288.311005 182.826492,287.092712 
	C183.520844,286.796387 184.012146,286.789917 184.806854,286.994019 
	C182.578018,288.348328 180.045761,289.492065 177.264267,290.401855 
z"/>
<path fill="#425575" opacity="1.000000" stroke="none" 
	d="
M40.386711,343.602051 
	C41.354324,343.779297 41.908962,343.977753 42.864834,344.366760 
	C40.702152,344.864410 38.138241,345.171570 35.283516,345.238068 
	C34.998432,344.807983 35.004162,344.618591 35.007343,344.144958 
	C36.661110,343.781555 38.317425,343.702393 40.386711,343.602051 
z"/>
<path fill="#B4BBC8" opacity="1.000000" stroke="none" 
	d="
M130.509155,299.650513 
	C133.039719,299.168243 135.271545,298.751068 137.750122,298.536652 
	C135.210175,299.809631 132.423462,300.879852 129.245544,301.897522 
	C128.902145,301.420074 128.949936,300.995209 129.002045,300.249329 
	C129.407715,299.857391 129.809052,299.786499 130.509155,299.650513 
z"/>
<path fill="#A8B0BF" opacity="1.000000" stroke="none" 
	d="
M86.112320,238.059937 
	C86.594299,237.978287 86.792946,237.994873 87.289940,238.029968 
	C87.536774,238.396713 87.485260,238.744949 87.144180,239.525101 
	C85.857292,241.308380 84.859970,242.659744 83.862640,244.011124 
	C84.518089,242.060135 85.173546,240.109146 86.112320,238.059937 
z"/>
<path fill="#3F5374" opacity="1.000000" stroke="none" 
	d="
M217.076996,49.248451 
	C214.795975,48.745827 212.368393,47.939262 209.766373,46.845383 
	C212.038101,47.353546 214.484283,48.149033 217.076996,49.248451 
z"/>
<path fill="#465979" opacity="1.000000" stroke="none" 
	d="
M89.073746,167.760162 
	C89.510635,168.233490 89.609619,168.683258 89.293190,169.604324 
	C88.783478,170.882217 88.689178,171.688782 88.594879,172.495361 
	C88.447479,172.936371 88.300079,173.377396 87.840919,173.981567 
	C84.992577,171.455276 86.432503,169.514633 89.073746,167.760162 
z"/>
<path fill="#3F5374" opacity="1.000000" stroke="none" 
	d="
M242.114166,59.287781 
	C240.265701,58.899490 238.315598,58.203575 236.182861,57.212875 
	C238.004333,57.605446 240.008423,58.292805 242.114166,59.287781 
z"/>
<path fill="#465979" opacity="1.000000" stroke="none" 
	d="
M111.752670,166.094391 
	C112.166550,163.964355 112.860161,161.676697 113.854698,159.195404 
	C113.447884,161.313446 112.740135,163.625107 111.752670,166.094391 
z"/>
<path fill="#465979" opacity="1.000000" stroke="none" 
	d="
M91.508835,227.090179 
	C91.042152,226.643982 90.916748,226.184601 91.172295,225.245377 
	C92.455391,223.501617 93.357536,222.237686 94.259674,220.973755 
	C93.456482,223.008163 92.653297,225.042587 91.508835,227.090179 
z"/>
<path fill="#9BA4B5" opacity="1.000000" stroke="none" 
	d="
M237.640778,303.071442 
	C237.451416,303.562256 236.886856,304.029297 235.915894,304.882446 
	C235.003098,305.823730 234.496674,306.378845 233.990265,306.933960 
	C233.195587,307.021881 232.400894,307.109772 231.252441,307.007202 
	C233.020966,305.560394 235.143280,304.304047 237.640778,303.071442 
z"/>
<path fill="#465979" opacity="1.000000" stroke="none" 
	d="
M83.810066,244.372711 
	C84.859970,242.659744 85.857292,241.308380 87.114517,239.787567 
	C86.524483,241.739059 85.674538,243.860001 84.480713,246.033218 
	C84.010391,245.635086 83.883942,245.184677 83.810066,244.372711 
z"/>
<path fill="#9BA4B5" opacity="1.000000" stroke="none" 
	d="
M85.452148,338.489136 
	C84.973610,338.377502 84.926811,338.193237 84.823837,337.729736 
	C86.982216,337.120087 89.196777,336.789642 91.700096,336.685364 
	C91.993752,337.092255 91.998650,337.272980 91.998337,337.724884 
	C89.956711,338.136200 87.920296,338.276398 85.452148,338.489136 
z"/>
<path fill="#A8B0BF" opacity="1.000000" stroke="none" 
	d="
M94.289810,220.608765 
	C93.357536,222.237686 92.455391,223.501617 91.231033,224.880035 
	C91.672638,222.984116 92.436462,220.973709 93.530525,218.938446 
	C94.013824,219.356964 94.166885,219.800369 94.289810,220.608765 
z"/>
<path fill="#465979" opacity="1.000000" stroke="none" 
	d="
M94.571777,219.080734 
	C94.119461,218.674286 93.988144,218.210205 94.212563,217.211945 
	C95.479790,215.442947 96.391281,214.208145 97.302773,212.973343 
	C96.499443,214.989929 95.696114,217.006516 94.571777,219.080734 
z"/>
<path fill="#A8B0BF" opacity="1.000000" stroke="none" 
	d="
M97.318024,212.617523 
	C96.391281,214.208145 95.479790,215.442947 94.276428,216.838654 
	C94.740593,214.998306 95.496628,212.997040 96.586212,210.971664 
	C97.057617,211.385605 97.195450,211.823639 97.318024,212.617523 
z"/>
<path fill="#A7AFBE" opacity="1.000000" stroke="none" 
	d="
M185.990845,112.736763 
	C186.041046,113.283180 185.983917,113.517097 185.815308,114.093971 
	C185.703827,114.436935 185.234268,114.455437 185.234268,114.455437 
	C185.234268,114.455437 184.767181,114.403999 184.540680,114.340027 
	C182.871704,113.534111 181.429245,112.792168 179.851166,111.764603 
	C181.771561,111.794075 183.827545,112.109161 185.990845,112.736763 
z"/>
<path fill="#465979" opacity="1.000000" stroke="none" 
	d="
M78.827583,257.149414 
	C79.552116,255.940872 80.168701,254.945847 81.024673,253.768982 
	C80.462929,255.718750 79.661797,257.850403 78.442734,259.700928 
	C78.034721,258.960327 78.044640,258.500824 78.054550,258.041321 
	C78.329887,257.867767 78.551582,257.641632 78.827583,257.149414 
z"/>
<path fill="#B4BBC8" opacity="1.000000" stroke="none" 
	d="
M208.903473,280.501831 
	C208.785294,279.872925 209.005692,279.401855 209.252625,278.669739 
	C209.279160,278.408752 209.605576,278.168365 210.096863,278.094604 
	C211.058701,277.624481 211.529236,277.228149 211.999771,276.831787 
	C212.479614,276.811829 212.959457,276.791870 213.755371,276.946350 
	C212.461639,278.300385 210.851837,279.480011 208.903473,280.501831 
z"/>
<path fill="#556683" opacity="1.000000" stroke="none" 
	d="
M222.450073,271.826050 
	C222.322769,272.385040 221.815933,272.946686 221.170273,273.769714 
	C220.507263,274.246979 219.983093,274.462860 218.865677,274.784302 
	C217.813202,274.884796 217.353958,274.879730 216.894714,274.874695 
	C218.619980,273.859344 220.345261,272.843994 222.450073,271.826050 
z"/>
<path fill="#A8B0BF" opacity="1.000000" stroke="none" 
	d="
M143.300507,25.605083 
	C141.914429,25.014580 140.528381,24.424074 139.036179,23.494568 
	C139.995850,23.107079 141.061646,23.058590 142.621887,23.351736 
	C143.177704,24.330606 143.239105,24.967844 143.300507,25.605083 
z"/>
<path fill="#3F5374" opacity="1.000000" stroke="none" 
	d="
M155.507538,326.566101 
	C156.604874,326.640930 157.404617,326.730652 158.601059,326.902954 
	C157.446579,327.396027 155.895386,327.806519 154.130096,327.923431 
	C153.915970,327.629852 153.962524,327.161957 153.993484,326.928894 
	C154.419601,326.657532 154.814774,326.619232 155.507538,326.566101 
z"/>
<path fill="#516280" opacity="1.000000" stroke="none" 
	d="
M279.403442,65.454132 
	C278.466736,65.305878 277.898315,65.074776 277.156921,64.587685 
	C278.563934,64.036583 280.143890,63.741463 281.904297,63.786705 
	C282.384003,64.118248 282.683258,64.109444 282.827850,64.511993 
	C282.455536,65.092728 282.237915,65.262100 282.020325,65.431480 
	C281.270782,65.411415 280.521271,65.391350 279.403442,65.454132 
z"/>
<path fill="#445777" opacity="1.000000" stroke="none" 
	d="
M213.228760,314.320374 
	C214.455383,313.416687 215.913300,312.732483 217.728851,312.073853 
	C216.544357,312.912933 215.002213,313.726410 213.228760,314.320374 
z"/>
<path fill="#445777" opacity="1.000000" stroke="none" 
	d="
M221.126968,311.312622 
	C222.636108,310.417358 224.491364,309.707092 226.695053,309.020172 
	C225.186691,309.861542 223.329880,310.679565 221.126968,311.312622 
z"/>
<path fill="#465979" opacity="1.000000" stroke="none" 
	d="
M129.627625,104.128922 
	C129.720734,102.924728 130.123062,101.642700 130.820099,100.180275 
	C130.722137,101.350288 130.329483,102.700684 129.627625,104.128922 
z"/>
<path fill="#465979" opacity="1.000000" stroke="none" 
	d="
M82.313293,251.975037 
	C82.493202,250.784637 83.001564,249.575729 83.785263,248.181381 
	C83.587646,249.316132 83.114700,250.636337 82.313293,251.975037 
z"/>
<path fill="#A7AFBE" opacity="1.000000" stroke="none" 
	d="
M261.829376,64.310898 
	C262.008545,64.999168 262.026947,65.392899 262.007935,66.087479 
	C260.988556,65.997627 260.006592,65.606926 259.087372,64.682472 
	C259.391357,63.951241 259.596710,63.721657 259.766144,63.459969 
	C260.400299,63.645428 261.034424,63.830891 261.829376,64.310898 
z"/>
<path fill="#465979" opacity="1.000000" stroke="none" 
	d="
M143.461334,25.722349 
	C143.239105,24.967844 143.177704,24.330606 143.023438,23.385036 
	C143.946976,23.803061 144.963394,24.529415 146.000549,25.619167 
	C145.556961,25.984259 145.092636,25.985954 144.281784,26.036598 
	C143.935242,26.085546 143.622177,25.839615 143.461334,25.722349 
z"/>
<path fill="#445777" opacity="1.000000" stroke="none" 
	d="
M202.989502,317.565491 
	C203.937286,316.640564 205.225418,315.881714 206.849609,315.188599 
	C205.900391,316.080109 204.615128,316.905823 202.989502,317.565491 
z"/>
<path fill="#848FA4" opacity="1.000000" stroke="none" 
	d="
M83.964966,184.407486 
	C84.623650,183.329254 85.244240,182.653381 86.127769,181.886627 
	C85.969543,183.215256 85.548378,184.634796 84.805557,186.163956 
	C84.298233,185.785660 84.112556,185.297760 83.964966,184.407486 
z"/>
<path fill="#3F5374" opacity="1.000000" stroke="none" 
	d="
M259.604675,63.143192 
	C259.596710,63.721657 259.391357,63.951241 259.059784,64.361679 
	C257.847107,64.410004 256.724731,64.245377 255.404236,63.796516 
	C256.618469,63.283657 258.030853,63.055038 259.604675,63.143192 
z"/>
<path fill="#B7BDCA" opacity="1.000000" stroke="none" 
	d="
M69.885040,256.314392 
	C70.068222,256.004913 70.250671,256.008423 70.706711,256.003876 
	C71.017586,257.300446 71.054863,258.605011 70.825729,260.061646 
	C70.374115,259.686859 70.188904,259.160065 69.835426,258.245789 
	C69.739548,257.448029 69.811935,257.037720 69.885040,256.314392 
z"/>
<path fill="#B7BDCA" opacity="1.000000" stroke="none" 
	d="
M89.222458,308.208344 
	C88.998024,307.792847 89.001091,307.611328 89.005440,307.157532 
	C90.120384,306.849884 91.234047,306.814514 92.719879,306.971130 
	C91.878014,307.589508 90.663986,308.015930 89.222458,308.208344 
z"/>
<path fill="#B4BBC8" opacity="1.000000" stroke="none" 
	d="
M216.741074,275.000061 
	C217.353958,274.879730 217.813202,274.884796 218.618134,274.923126 
	C218.095840,275.776276 217.227859,276.596130 216.199493,276.915436 
	C216.118500,276.067474 216.197906,275.720062 216.277313,275.372650 
	C216.277313,275.372650 216.587433,275.125427 216.741074,275.000061 
z"/>
<path fill="#384D6F" opacity="1.000000" stroke="none" 
	d="
M224.462036,257.950745 
	C225.128693,257.998047 225.774887,258.393188 226.678619,258.924683 
	C227.225037,259.555695 227.513931,260.050385 227.807892,260.832275 
	C226.689163,260.179230 225.565369,259.238922 224.462036,257.950745 
z"/>
<path fill="#445777" opacity="1.000000" stroke="none" 
	d="
M234.158829,307.160217 
	C234.496674,306.378845 235.003098,305.823730 235.749374,305.104492 
	C236.194199,304.978546 236.399155,305.016693 236.899261,305.159302 
	C236.238724,305.971283 235.283066,306.678833 234.158829,307.160217 
z"/>
<path fill="#384D6F" opacity="1.000000" stroke="none" 
	d="
M221.052139,256.339111 
	C222.021103,256.287323 223.033264,256.596436 224.186981,257.197632 
	C223.250824,257.226471 222.173065,256.963226 221.052139,256.339111 
z"/>
<path fill="#425575" opacity="1.000000" stroke="none" 
	d="
M188.142181,320.779297 
	C188.824768,320.248352 189.614670,320.027191 190.711884,319.910400 
	C190.095978,320.372864 189.172745,320.730957 188.142181,320.779297 
z"/>
<path fill="#465979" opacity="1.000000" stroke="none" 
	d="
M73.179916,234.905258 
	C73.591545,234.990402 73.757942,235.213455 74.175285,235.770294 
	C74.343414,236.524612 74.260597,236.945145 74.165680,237.687256 
	C73.951080,238.006851 73.748566,238.004913 73.242279,237.999390 
	C72.937233,237.011597 72.935959,236.027374 73.179916,234.905258 
z"/>
<path fill="#B4BBC8" opacity="1.000000" stroke="none" 
	d="
M140.871765,298.455475 
	C140.685074,297.947815 140.825653,297.639160 140.987885,297.075562 
	C141.811386,296.825958 142.613235,296.831329 143.755066,297.050842 
	C143.129700,297.728149 142.164368,298.191315 140.871765,298.455475 
z"/>
<path fill="#516280" opacity="1.000000" stroke="none" 
	d="
M265.054565,107.728317 
	C265.324707,106.862724 265.934021,106.061897 266.856140,105.228851 
	C266.577240,106.062111 265.985504,106.927597 265.054565,107.728317 
z"/>
<path fill="#909AAD" opacity="1.000000" stroke="none" 
	d="
M274.700439,280.136292 
	C274.999207,280.391144 274.976227,280.737122 274.939270,281.342712 
	C274.508698,282.071136 274.092133,282.539948 273.359741,283.024902 
	C273.488861,282.103149 273.933777,281.165283 274.700439,280.136292 
z"/>
<path fill="#445777" opacity="1.000000" stroke="none" 
	d="
M199.652863,316.602234 
	C199.985123,316.749725 199.991547,316.942780 200.025665,317.424164 
	C199.215698,318.051300 198.377991,318.390106 197.180725,318.740417 
	C197.148422,318.282867 197.475677,317.813843 197.911896,317.075348 
	C198.456238,316.753204 198.891647,316.700470 199.652863,316.602234 
z"/>
<path fill="#848FA4" opacity="1.000000" stroke="none" 
	d="
M80.068466,207.858871 
	C79.569389,207.746429 79.330200,207.513000 78.945526,207.066055 
	C79.006317,206.547897 79.212601,206.243225 79.696350,205.966354 
	C80.092003,206.575378 80.210175,207.156631 80.068466,207.858871 
z"/>
<path fill="#B7BDCA" opacity="1.000000" stroke="none" 
	d="
M77.748161,258.037903 
	C78.044640,258.500824 78.034721,258.960327 78.091110,259.760101 
	C78.157402,260.100372 77.729591,260.324615 77.515976,260.211975 
	C77.348824,259.411041 77.395294,258.722748 77.748161,258.037903 
z"/>
<path fill="#3F5374" opacity="1.000000" stroke="none" 
	d="
M162.156357,53.625298 
	C161.955063,53.997860 161.776138,53.994648 161.329102,54.004826 
	C161.106949,53.302246 161.152924,52.586277 161.472351,51.865410 
	C161.890091,52.323513 162.034393,52.786518 162.156357,53.625298 
z"/>
<path fill="#465979" opacity="1.000000" stroke="none" 
	d="
M83.580086,187.948669 
	C83.938309,188.525055 83.997787,189.110260 83.785469,189.868134 
	C83.436226,189.346375 83.358780,188.651932 83.580086,187.948669 
z"/>
<path fill="#425575" opacity="1.000000" stroke="none" 
	d="
M59.130859,342.095947 
	C58.989162,341.710724 59.000919,341.524536 59.011230,341.058472 
	C59.519985,340.821899 60.030178,340.865173 60.837296,341.154083 
	C60.517586,341.698120 59.900944,341.996552 59.130859,342.095947 
z"/>
<path fill="#384D6F" opacity="1.000000" stroke="none" 
	d="
M218.641220,252.927734 
	C219.111374,253.313644 219.220749,253.655670 219.398621,254.263611 
	C218.659210,254.296387 217.851318,254.063232 216.976791,253.492264 
	C217.366928,253.064255 217.823685,252.974045 218.641220,252.927734 
z"/>
<path fill="#384D6F" opacity="1.000000" stroke="none" 
	d="
M212.020111,252.238312 
	C212.625580,252.073273 213.220978,252.198151 213.917191,252.617859 
	C213.348679,252.784531 212.679352,252.656372 212.020111,252.238312 
z"/>
<path fill="#384D6F" opacity="1.000000" stroke="none" 
	d="
M225.105255,269.376282 
	C224.928650,270.057922 224.395218,270.644684 223.554214,271.267731 
	C223.747223,270.629822 224.247818,269.955627 225.105255,269.376282 
z"/>
<path fill="#556683" opacity="1.000000" stroke="none" 
	d="
M215.957962,275.303162 
	C216.197906,275.720062 216.118500,276.067474 216.018433,276.683990 
	C215.507874,277.009583 215.017990,277.066071 214.198349,276.953979 
	C214.458603,276.268127 215.048599,275.750916 215.957962,275.303162 
z"/>
<path fill="#556683" opacity="1.000000" stroke="none" 
	d="
M211.825226,276.622986 
	C211.529236,277.228149 211.058701,277.624481 210.265289,277.981812 
	C210.511841,277.433258 211.081268,276.923737 211.825226,276.622986 
z"/>
<path fill="#465979" opacity="1.000000" stroke="none" 
	d="
M148.263412,27.820942 
	C147.630203,27.649624 147.211227,27.297054 146.738556,26.663572 
	C147.282471,26.801672 147.880051,27.220682 148.263412,27.820942 
z"/>
<path fill="#B4BBC8" opacity="1.000000" stroke="none" 
	d="
M173.166412,291.206696 
	C172.998459,290.809753 172.997452,290.622650 173.002106,290.154907 
	C173.491302,289.834778 173.974838,289.795288 174.769089,289.946350 
	C174.497650,290.563507 173.915512,290.990021 173.166412,291.206696 
z"/>
<path fill="#304669" opacity="1.000000" stroke="none" 
	d="
M206.099960,236.450928 
	C205.588455,236.686386 204.995850,236.664215 204.197464,236.413696 
	C204.667404,236.188004 205.343140,236.190643 206.099960,236.450928 
z"/>
<path fill="#A8B0BF" opacity="1.000000" stroke="none" 
	d="
M136.185181,23.869123 
	C135.991928,23.989412 135.937256,23.518517 135.975189,23.284546 
	C136.189575,23.012650 136.366028,22.974728 136.794922,23.034548 
	C136.843872,23.358940 136.620880,23.564453 136.185181,23.869123 
z"/>
<path fill="#425575" opacity="1.000000" stroke="none" 
	d="
M167.049225,325.703613 
	C167.002808,325.481110 167.198074,325.198914 167.659332,324.910095 
	C167.814682,325.236694 167.603195,325.483521 167.049225,325.703613 
z"/>
<path fill="#B7BDCA" opacity="1.000000" stroke="none" 
	d="
M72.301247,311.350525 
	C76.454437,310.091797 80.899895,309.076172 85.753601,308.176208 
	C82.402061,312.527985 77.308907,311.284576 72.301247,311.350525 
z"/>
<path fill="#B7BDCA" opacity="1.000000" stroke="none" 
	d="
M52.282074,314.264465 
	C56.814571,313.076935 61.629444,312.157074 66.841599,311.395355 
	C62.347404,312.546356 57.455925,313.539246 52.282074,314.264465 
z"/>
<path fill="#B7BDCA" opacity="1.000000" stroke="none" 
	d="
M114.257156,304.297424 
	C117.147560,303.079407 120.291908,302.120819 123.826103,301.306061 
	C120.981003,302.485565 117.746048,303.521210 114.257156,304.297424 
z"/>
<path fill="#B4BBC8" opacity="1.000000" stroke="none" 
	d="
M148.290604,297.412628 
	C151.172653,296.210083 154.328461,295.236938 157.868988,294.408508 
	C155.023926,295.582825 151.794144,296.612427 148.290604,297.412628 
z"/>
<path fill="#B4BBC8" opacity="1.000000" stroke="none" 
	d="
M162.262268,294.260864 
	C164.807953,293.047150 167.614227,292.063873 170.798859,291.195251 
	C168.292435,292.370361 165.407639,293.430817 162.262268,294.260864 
z"/>
<path fill="#B4BBC8" opacity="1.000000" stroke="none" 
	d="
M188.235596,287.338867 
	C190.158859,286.110382 192.309158,285.115082 194.824768,284.231476 
	C192.947586,285.419464 190.705093,286.495758 188.235596,287.338867 
z"/>
<path fill="#B4BBC8" opacity="1.000000" stroke="none" 
	d="
M197.241821,284.258606 
	C199.162643,283.088745 201.323334,282.143158 203.845093,281.277557 
	C201.964676,282.399323 199.723190,283.441101 197.241821,284.258606 
z"/>
<path fill="#BBC1CD" opacity="1.000000" stroke="none" 
	d="
M206.809280,117.089340 
	C202.171097,116.423340 197.334595,115.433716 192.254562,114.166092 
	C196.877670,114.847313 201.744324,115.806511 206.809280,117.089340 
z"/>
<path fill="#D0D4DC" opacity="1.000000" stroke="none" 
	d="
M283.084595,64.880402 
	C283.849792,65.321106 284.203583,65.804764 284.557343,66.288422 
	C283.738617,66.200127 282.919891,66.111832 282.060730,65.727509 
	C282.237915,65.262100 282.455536,65.092728 283.084595,64.880402 
z"/>
<path fill="#BBC1CD" opacity="1.000000" stroke="none" 
	d="
M269.873444,99.172508 
	C270.018494,99.703316 269.872437,100.260857 269.448547,100.917313 
	C269.307922,100.410568 269.445129,99.804909 269.873444,99.172508 
z"/>
<path fill="#B7BDCA" opacity="1.000000" stroke="none" 
	d="
M73.700882,266.032257 
	C73.219574,266.956177 72.372437,267.860962 71.525299,268.765747 
	C70.853020,266.981659 70.180733,265.197540 69.779205,263.208984 
	C71.144989,264.007416 72.240013,265.010284 73.700882,266.032257 
z"/>
<path fill="#848FA4" opacity="1.000000" stroke="none" 
	d="
M78.713989,214.232651 
	C78.527245,212.966919 78.694763,211.556198 79.185822,209.984467 
	C79.362335,211.244858 79.215294,212.666260 78.713989,214.232651 
z"/>
<path fill="#848FA4" opacity="1.000000" stroke="none" 
	d="
M88.887917,172.337494 
	C88.689178,171.688782 88.783478,170.882217 89.188690,169.947693 
	C89.393394,170.606369 89.287178,171.392990 88.887917,172.337494 
z"/>
</svg>